<mxfile host="app.diagrams.net" modified="2023-01-10T09:51:20.598Z" agent="5.0 (X11; Linux x86_64) AppleWebKit/537.36 (KHTML, like Gecko) Chrome/92.0.4515.159 Safari/537.36" etag="l6mEK60hJ5XwAr9vWh3n" version="20.7.4" type="github" pages="20">
  <diagram id="NpSS3vloMxZwv2ASxGbb" name="Page-1">
    <mxGraphModel dx="1802" dy="1956" grid="1" gridSize="10" guides="1" tooltips="1" connect="1" arrows="1" fold="1" page="1" pageScale="1" pageWidth="827" pageHeight="1169" math="0" shadow="0">
      <root>
        <mxCell id="0" />
        <mxCell id="1" parent="0" />
        <mxCell id="AaH4puz1n41C6Irxempw-41" value="前端解码器" style="whiteSpace=wrap;html=1;fontSize=18;" parent="1" vertex="1">
          <mxGeometry x="200" y="30" width="120" height="60" as="geometry" />
        </mxCell>
        <mxCell id="AaH4puz1n41C6Irxempw-42" value="" style="endArrow=classic;html=1;rounded=0;fontSize=18;exitX=0.5;exitY=1;exitDx=0;exitDy=0;" parent="1" source="AaH4puz1n41C6Irxempw-41" target="AaH4puz1n41C6Irxempw-43" edge="1">
          <mxGeometry width="50" height="50" relative="1" as="geometry">
            <mxPoint x="350" y="240" as="sourcePoint" />
            <mxPoint x="260" y="140" as="targetPoint" />
          </mxGeometry>
        </mxCell>
        <mxCell id="AaH4puz1n41C6Irxempw-43" value="分析优化器" style="rounded=0;whiteSpace=wrap;html=1;fontSize=18;" parent="1" vertex="1">
          <mxGeometry x="200" y="120" width="120" height="60" as="geometry" />
        </mxCell>
        <mxCell id="AaH4puz1n41C6Irxempw-44" value="" style="endArrow=classic;html=1;rounded=0;fontSize=18;exitX=0.5;exitY=1;exitDx=0;exitDy=0;" parent="1" source="AaH4puz1n41C6Irxempw-43" target="AaH4puz1n41C6Irxempw-45" edge="1">
          <mxGeometry width="50" height="50" relative="1" as="geometry">
            <mxPoint x="350" y="200" as="sourcePoint" />
            <mxPoint x="260" y="240" as="targetPoint" />
          </mxGeometry>
        </mxCell>
        <mxCell id="AaH4puz1n41C6Irxempw-45" value="目标代码生成器" style="rounded=0;whiteSpace=wrap;html=1;fontSize=18;" parent="1" vertex="1">
          <mxGeometry x="200" y="220" width="120" height="60" as="geometry" />
        </mxCell>
        <mxCell id="AaH4puz1n41C6Irxempw-46" value="" style="endArrow=classic;html=1;rounded=0;fontSize=18;exitX=0.5;exitY=1;exitDx=0;exitDy=0;entryX=0.25;entryY=0;entryDx=0;entryDy=0;" parent="1" source="AaH4puz1n41C6Irxempw-45" target="AaH4puz1n41C6Irxempw-54" edge="1">
          <mxGeometry width="50" height="50" relative="1" as="geometry">
            <mxPoint x="660" y="190" as="sourcePoint" />
            <mxPoint x="400" y="360" as="targetPoint" />
            <Array as="points">
              <mxPoint x="260" y="320" />
              <mxPoint x="360" y="320" />
              <mxPoint x="384" y="320" />
            </Array>
          </mxGeometry>
        </mxCell>
        <mxCell id="AaH4puz1n41C6Irxempw-49" value="" style="endArrow=classic;html=1;rounded=0;fontSize=18;exitX=1;exitY=0.5;exitDx=0;exitDy=0;entryX=0;entryY=0.5;entryDx=0;entryDy=0;" parent="1" source="AaH4puz1n41C6Irxempw-43" target="AaH4puz1n41C6Irxempw-63" edge="1">
          <mxGeometry width="50" height="50" relative="1" as="geometry">
            <mxPoint x="660" y="160" as="sourcePoint" />
            <mxPoint x="440" y="150" as="targetPoint" />
            <Array as="points">
              <mxPoint x="380" y="150" />
            </Array>
          </mxGeometry>
        </mxCell>
        <mxCell id="AaH4puz1n41C6Irxempw-51" value="待翻译程序" style="rounded=0;whiteSpace=wrap;html=1;fontSize=18;" parent="1" vertex="1">
          <mxGeometry x="354" y="-120" width="120" height="60" as="geometry" />
        </mxCell>
        <mxCell id="AaH4puz1n41C6Irxempw-53" value="提供运行信息" style="text;html=1;align=center;verticalAlign=middle;resizable=0;points=[];autosize=1;strokeColor=none;fillColor=none;fontSize=18;" parent="1" vertex="1">
          <mxGeometry x="354" y="115" width="120" height="30" as="geometry" />
        </mxCell>
        <mxCell id="AaH4puz1n41C6Irxempw-54" value="可执行代码块" style="rounded=0;whiteSpace=wrap;html=1;fontSize=18;" parent="1" vertex="1">
          <mxGeometry x="354" y="360" width="120" height="60" as="geometry" />
        </mxCell>
        <mxCell id="AaH4puz1n41C6Irxempw-55" value="" style="endArrow=classic;html=1;rounded=0;fontSize=18;exitX=0.5;exitY=1;exitDx=0;exitDy=0;" parent="1" source="AaH4puz1n41C6Irxempw-64" edge="1">
          <mxGeometry width="50" height="50" relative="1" as="geometry">
            <mxPoint x="500" y="180" as="sourcePoint" />
            <mxPoint x="440" y="360" as="targetPoint" />
            <Array as="points">
              <mxPoint x="580" y="320" />
              <mxPoint x="470" y="320" />
              <mxPoint x="440" y="320" />
            </Array>
          </mxGeometry>
        </mxCell>
        <mxCell id="AaH4puz1n41C6Irxempw-56" value="" style="endArrow=classic;html=1;rounded=0;fontSize=18;exitX=0.317;exitY=1.08;exitDx=0;exitDy=0;exitPerimeter=0;entryX=0.5;entryY=0;entryDx=0;entryDy=0;" parent="1" source="AaH4puz1n41C6Irxempw-51" target="AaH4puz1n41C6Irxempw-41" edge="1">
          <mxGeometry width="50" height="50" relative="1" as="geometry">
            <mxPoint x="650" y="200" as="sourcePoint" />
            <mxPoint x="700" y="150" as="targetPoint" />
          </mxGeometry>
        </mxCell>
        <mxCell id="AaH4puz1n41C6Irxempw-57" value="" style="endArrow=classic;html=1;rounded=0;fontSize=18;exitX=0.69;exitY=1.093;exitDx=0;exitDy=0;exitPerimeter=0;entryX=0.5;entryY=0;entryDx=0;entryDy=0;" parent="1" source="AaH4puz1n41C6Irxempw-51" target="AaH4puz1n41C6Irxempw-61" edge="1">
          <mxGeometry width="50" height="50" relative="1" as="geometry">
            <mxPoint x="650" y="200" as="sourcePoint" />
            <mxPoint x="570" y="20" as="targetPoint" />
          </mxGeometry>
        </mxCell>
        <mxCell id="AaH4puz1n41C6Irxempw-58" value="动态端" style="text;html=1;align=center;verticalAlign=middle;resizable=0;points=[];autosize=1;strokeColor=none;fillColor=none;fontSize=18;" parent="1" vertex="1">
          <mxGeometry x="105" y="-35" width="70" height="30" as="geometry" />
        </mxCell>
        <mxCell id="AaH4puz1n41C6Irxempw-59" value="静态端" style="text;html=1;align=center;verticalAlign=middle;resizable=0;points=[];autosize=1;strokeColor=none;fillColor=none;fontSize=18;" parent="1" vertex="1">
          <mxGeometry x="640" y="-35" width="70" height="30" as="geometry" />
        </mxCell>
        <mxCell id="AaH4puz1n41C6Irxempw-60" value="" style="edgeStyle=orthogonalEdgeStyle;rounded=0;orthogonalLoop=1;jettySize=auto;html=1;" parent="1" source="AaH4puz1n41C6Irxempw-61" target="AaH4puz1n41C6Irxempw-63" edge="1">
          <mxGeometry relative="1" as="geometry" />
        </mxCell>
        <mxCell id="AaH4puz1n41C6Irxempw-61" value="&lt;font style=&quot;font-size: 18px&quot;&gt;代码挖掘与分析&lt;/font&gt;" style="rounded=0;whiteSpace=wrap;html=1;" parent="1" vertex="1">
          <mxGeometry x="520" y="30" width="120" height="60" as="geometry" />
        </mxCell>
        <mxCell id="AaH4puz1n41C6Irxempw-62" value="" style="edgeStyle=orthogonalEdgeStyle;rounded=0;orthogonalLoop=1;jettySize=auto;html=1;" parent="1" source="AaH4puz1n41C6Irxempw-63" target="AaH4puz1n41C6Irxempw-64" edge="1">
          <mxGeometry relative="1" as="geometry" />
        </mxCell>
        <mxCell id="AaH4puz1n41C6Irxempw-63" value="&lt;font style=&quot;font-size: 18px&quot;&gt;离线翻译&lt;/font&gt;" style="rounded=0;whiteSpace=wrap;html=1;" parent="1" vertex="1">
          <mxGeometry x="520" y="120" width="120" height="60" as="geometry" />
        </mxCell>
        <mxCell id="AaH4puz1n41C6Irxempw-64" value="&lt;font style=&quot;font-size: 18px&quot;&gt;离线优化&lt;/font&gt;" style="whiteSpace=wrap;html=1;" parent="1" vertex="1">
          <mxGeometry x="520" y="220" width="120" height="60" as="geometry" />
        </mxCell>
        <mxCell id="VCvCbCSoM-xe4gamqYiM-1" value="guest code" style="text;html=1;align=center;verticalAlign=middle;resizable=0;points=[];autosize=1;strokeColor=none;fillColor=none;" parent="1" vertex="1">
          <mxGeometry x="354" y="630" width="70" height="20" as="geometry" />
        </mxCell>
        <mxCell id="VCvCbCSoM-xe4gamqYiM-2" value="host code" style="text;html=1;strokeColor=none;fillColor=none;align=center;verticalAlign=middle;whiteSpace=wrap;rounded=0;" parent="1" vertex="1">
          <mxGeometry x="680" y="625" width="60" height="30" as="geometry" />
        </mxCell>
        <mxCell id="VCvCbCSoM-xe4gamqYiM-3" value="X86" style="text;html=1;align=center;verticalAlign=middle;resizable=0;points=[];autosize=1;strokeColor=none;fillColor=none;" parent="1" vertex="1">
          <mxGeometry x="380" y="680" width="40" height="20" as="geometry" />
        </mxCell>
        <mxCell id="VCvCbCSoM-xe4gamqYiM-4" value="ARM" style="text;html=1;align=center;verticalAlign=middle;resizable=0;points=[];autosize=1;strokeColor=none;fillColor=none;" parent="1" vertex="1">
          <mxGeometry x="380" y="720" width="40" height="20" as="geometry" />
        </mxCell>
        <mxCell id="VCvCbCSoM-xe4gamqYiM-6" value="......" style="text;html=1;align=center;verticalAlign=middle;resizable=0;points=[];autosize=1;strokeColor=none;fillColor=none;" parent="1" vertex="1">
          <mxGeometry x="380" y="760" width="40" height="20" as="geometry" />
        </mxCell>
        <mxCell id="VCvCbCSoM-xe4gamqYiM-8" value="MIPS" style="text;html=1;align=center;verticalAlign=middle;resizable=0;points=[];autosize=1;strokeColor=none;fillColor=none;" parent="1" vertex="1">
          <mxGeometry x="375" y="800" width="50" height="20" as="geometry" />
        </mxCell>
        <mxCell id="VCvCbCSoM-xe4gamqYiM-10" value="PowerPC" style="text;html=1;align=center;verticalAlign=middle;resizable=0;points=[];autosize=1;strokeColor=none;fillColor=none;" parent="1" vertex="1">
          <mxGeometry x="365" y="840" width="70" height="20" as="geometry" />
        </mxCell>
        <mxCell id="VCvCbCSoM-xe4gamqYiM-12" value="X86" style="text;html=1;align=center;verticalAlign=middle;resizable=0;points=[];autosize=1;strokeColor=none;fillColor=none;" parent="1" vertex="1">
          <mxGeometry x="380" y="890" width="40" height="20" as="geometry" />
        </mxCell>
        <mxCell id="VCvCbCSoM-xe4gamqYiM-15" value="X86" style="text;html=1;align=center;verticalAlign=middle;resizable=0;points=[];autosize=1;strokeColor=none;fillColor=none;" parent="1" vertex="1">
          <mxGeometry x="690" y="680" width="40" height="20" as="geometry" />
        </mxCell>
        <mxCell id="VCvCbCSoM-xe4gamqYiM-16" value="ARM" style="text;html=1;align=center;verticalAlign=middle;resizable=0;points=[];autosize=1;strokeColor=none;fillColor=none;" parent="1" vertex="1">
          <mxGeometry x="690" y="720" width="40" height="20" as="geometry" />
        </mxCell>
        <mxCell id="VCvCbCSoM-xe4gamqYiM-17" value="......" style="text;html=1;align=center;verticalAlign=middle;resizable=0;points=[];autosize=1;strokeColor=none;fillColor=none;" parent="1" vertex="1">
          <mxGeometry x="690" y="760" width="40" height="20" as="geometry" />
        </mxCell>
        <mxCell id="VCvCbCSoM-xe4gamqYiM-18" value="MIPS" style="text;html=1;align=center;verticalAlign=middle;resizable=0;points=[];autosize=1;strokeColor=none;fillColor=none;" parent="1" vertex="1">
          <mxGeometry x="685" y="800" width="50" height="20" as="geometry" />
        </mxCell>
        <mxCell id="VCvCbCSoM-xe4gamqYiM-19" value="PowerPC" style="text;html=1;align=center;verticalAlign=middle;resizable=0;points=[];autosize=1;strokeColor=none;fillColor=none;" parent="1" vertex="1">
          <mxGeometry x="675" y="840" width="70" height="20" as="geometry" />
        </mxCell>
        <mxCell id="VCvCbCSoM-xe4gamqYiM-20" value="X86" style="text;html=1;align=center;verticalAlign=middle;resizable=0;points=[];autosize=1;strokeColor=none;fillColor=none;" parent="1" vertex="1">
          <mxGeometry x="690" y="890" width="40" height="20" as="geometry" />
        </mxCell>
        <mxCell id="VCvCbCSoM-xe4gamqYiM-21" value="与架构无关的中间代码" style="whiteSpace=wrap;html=1;" parent="1" vertex="1">
          <mxGeometry x="490" y="730" width="120" height="60" as="geometry" />
        </mxCell>
      </root>
    </mxGraphModel>
  </diagram>
  <diagram id="bROEt5CRj0lO9_e7mmpV" name="Page-2">
    <mxGraphModel dx="858" dy="375" grid="1" gridSize="10" guides="1" tooltips="1" connect="1" arrows="1" fold="1" page="1" pageScale="1" pageWidth="827" pageHeight="1169" math="0" shadow="0">
      <root>
        <mxCell id="2AKUMBZ1-MISnBU4axUH-0" />
        <mxCell id="2AKUMBZ1-MISnBU4axUH-1" parent="2AKUMBZ1-MISnBU4axUH-0" />
        <mxCell id="x4EPRl0sg-PK3G8lVyGJ-0" value="&lt;font style=&quot;font-size: 18px;&quot;&gt;guest code&lt;/font&gt;" style="text;html=1;align=center;verticalAlign=middle;resizable=0;points=[];autosize=1;strokeColor=none;fillColor=none;" parent="2AKUMBZ1-MISnBU4axUH-1" vertex="1">
          <mxGeometry x="336" y="623" width="106" height="34" as="geometry" />
        </mxCell>
        <mxCell id="x4EPRl0sg-PK3G8lVyGJ-1" value="&lt;font style=&quot;font-size: 18px;&quot;&gt;host code&lt;/font&gt;" style="text;html=1;strokeColor=none;fillColor=none;align=center;verticalAlign=middle;whiteSpace=wrap;rounded=0;" parent="2AKUMBZ1-MISnBU4axUH-1" vertex="1">
          <mxGeometry x="720" y="627" width="91" height="30" as="geometry" />
        </mxCell>
        <mxCell id="x4EPRl0sg-PK3G8lVyGJ-2" value="&lt;font style=&quot;font-size: 18px;&quot;&gt;X86&lt;/font&gt;" style="text;html=1;align=center;verticalAlign=middle;resizable=0;points=[];autosize=1;strokeColor=none;fillColor=none;" parent="2AKUMBZ1-MISnBU4axUH-1" vertex="1">
          <mxGeometry x="376" y="679" width="50" height="34" as="geometry" />
        </mxCell>
        <mxCell id="x4EPRl0sg-PK3G8lVyGJ-3" value="&lt;font style=&quot;font-size: 18px;&quot;&gt;ARM&lt;/font&gt;" style="text;html=1;align=center;verticalAlign=middle;resizable=0;points=[];autosize=1;strokeColor=none;fillColor=none;" parent="2AKUMBZ1-MISnBU4axUH-1" vertex="1">
          <mxGeometry x="371" y="720" width="58" height="34" as="geometry" />
        </mxCell>
        <mxCell id="x4EPRl0sg-PK3G8lVyGJ-4" value="&lt;font style=&quot;font-size: 18px;&quot;&gt;......&lt;/font&gt;" style="text;html=1;align=center;verticalAlign=middle;resizable=0;points=[];autosize=1;strokeColor=none;fillColor=none;" parent="2AKUMBZ1-MISnBU4axUH-1" vertex="1">
          <mxGeometry x="376" y="759" width="48" height="34" as="geometry" />
        </mxCell>
        <mxCell id="x4EPRl0sg-PK3G8lVyGJ-5" value="&lt;font style=&quot;font-size: 18px;&quot;&gt;MIPS&lt;/font&gt;" style="text;html=1;align=center;verticalAlign=middle;resizable=0;points=[];autosize=1;strokeColor=none;fillColor=none;" parent="2AKUMBZ1-MISnBU4axUH-1" vertex="1">
          <mxGeometry x="369" y="793" width="62" height="34" as="geometry" />
        </mxCell>
        <mxCell id="x4EPRl0sg-PK3G8lVyGJ-6" value="&lt;font style=&quot;font-size: 18px;&quot;&gt;PowerPC&lt;/font&gt;" style="text;html=1;align=center;verticalAlign=middle;resizable=0;points=[];autosize=1;strokeColor=none;fillColor=none;" parent="2AKUMBZ1-MISnBU4axUH-1" vertex="1">
          <mxGeometry x="353" y="833" width="94" height="34" as="geometry" />
        </mxCell>
        <mxCell id="x4EPRl0sg-PK3G8lVyGJ-8" value="&lt;font style=&quot;font-size: 18px;&quot;&gt;X86&lt;/font&gt;" style="text;html=1;align=center;verticalAlign=middle;resizable=0;points=[];autosize=1;strokeColor=none;fillColor=none;" parent="2AKUMBZ1-MISnBU4axUH-1" vertex="1">
          <mxGeometry x="720" y="680" width="60" height="40" as="geometry" />
        </mxCell>
        <mxCell id="x4EPRl0sg-PK3G8lVyGJ-9" value="&lt;font style=&quot;font-size: 18px;&quot;&gt;ARM&lt;/font&gt;" style="text;html=1;align=center;verticalAlign=middle;resizable=0;points=[];autosize=1;strokeColor=none;fillColor=none;" parent="2AKUMBZ1-MISnBU4axUH-1" vertex="1">
          <mxGeometry x="725" y="720" width="60" height="40" as="geometry" />
        </mxCell>
        <mxCell id="x4EPRl0sg-PK3G8lVyGJ-10" value="&lt;font style=&quot;font-size: 18px;&quot;&gt;......&lt;/font&gt;" style="text;html=1;align=center;verticalAlign=middle;resizable=0;points=[];autosize=1;strokeColor=none;fillColor=none;" parent="2AKUMBZ1-MISnBU4axUH-1" vertex="1">
          <mxGeometry x="725" y="760" width="50" height="40" as="geometry" />
        </mxCell>
        <mxCell id="x4EPRl0sg-PK3G8lVyGJ-11" value="&lt;font style=&quot;font-size: 18px;&quot;&gt;MIPS&lt;/font&gt;" style="text;html=1;align=center;verticalAlign=middle;resizable=0;points=[];autosize=1;strokeColor=none;fillColor=none;" parent="2AKUMBZ1-MISnBU4axUH-1" vertex="1">
          <mxGeometry x="725" y="793" width="70" height="40" as="geometry" />
        </mxCell>
        <mxCell id="x4EPRl0sg-PK3G8lVyGJ-12" value="&lt;font style=&quot;font-size: 18px;&quot;&gt;PowerPC&lt;/font&gt;" style="text;html=1;align=center;verticalAlign=middle;resizable=0;points=[];autosize=1;strokeColor=none;fillColor=none;" parent="2AKUMBZ1-MISnBU4axUH-1" vertex="1">
          <mxGeometry x="725" y="830" width="100" height="40" as="geometry" />
        </mxCell>
        <mxCell id="53IKFIph6mnC9hIYPUuv-1" style="edgeStyle=orthogonalEdgeStyle;rounded=0;orthogonalLoop=1;jettySize=auto;html=1;fontSize=18;" edge="1" parent="2AKUMBZ1-MISnBU4axUH-1" target="x4EPRl0sg-PK3G8lVyGJ-10">
          <mxGeometry relative="1" as="geometry">
            <mxPoint x="650" y="780" as="sourcePoint" />
          </mxGeometry>
        </mxCell>
        <mxCell id="x4EPRl0sg-PK3G8lVyGJ-14" value="&lt;font style=&quot;font-size: 18px;&quot;&gt;与架构无关的中间代码&lt;/font&gt;" style="whiteSpace=wrap;html=1;" parent="2AKUMBZ1-MISnBU4axUH-1" vertex="1">
          <mxGeometry x="520" y="750" width="120" height="60" as="geometry" />
        </mxCell>
        <mxCell id="x4EPRl0sg-PK3G8lVyGJ-16" value="" style="endArrow=classic;html=1;rounded=0;" parent="2AKUMBZ1-MISnBU4axUH-1" source="x4EPRl0sg-PK3G8lVyGJ-6" edge="1">
          <mxGeometry width="50" height="50" relative="1" as="geometry">
            <mxPoint x="440" y="850" as="sourcePoint" />
            <mxPoint x="510" y="800" as="targetPoint" />
            <Array as="points" />
          </mxGeometry>
        </mxCell>
        <mxCell id="x4EPRl0sg-PK3G8lVyGJ-19" value="" style="endArrow=classic;html=1;rounded=0;exitX=0.996;exitY=0.721;exitDx=0;exitDy=0;exitPerimeter=0;" parent="2AKUMBZ1-MISnBU4axUH-1" source="x4EPRl0sg-PK3G8lVyGJ-3" edge="1">
          <mxGeometry width="50" height="50" relative="1" as="geometry">
            <mxPoint x="450" y="732.5" as="sourcePoint" />
            <mxPoint x="510" y="770" as="targetPoint" />
            <Array as="points" />
          </mxGeometry>
        </mxCell>
        <mxCell id="x4EPRl0sg-PK3G8lVyGJ-20" value="" style="endArrow=classic;html=1;rounded=0;exitX=0.982;exitY=0.764;exitDx=0;exitDy=0;exitPerimeter=0;" parent="2AKUMBZ1-MISnBU4axUH-1" source="x4EPRl0sg-PK3G8lVyGJ-2" edge="1">
          <mxGeometry width="50" height="50" relative="1" as="geometry">
            <mxPoint x="435" y="690" as="sourcePoint" />
            <mxPoint x="510" y="760" as="targetPoint" />
            <Array as="points" />
          </mxGeometry>
        </mxCell>
        <mxCell id="x4EPRl0sg-PK3G8lVyGJ-22" value="" style="endArrow=classic;html=1;rounded=0;" parent="2AKUMBZ1-MISnBU4axUH-1" target="x4EPRl0sg-PK3G8lVyGJ-9" edge="1">
          <mxGeometry width="50" height="50" relative="1" as="geometry">
            <mxPoint x="650" y="770" as="sourcePoint" />
            <mxPoint x="780" y="650" as="targetPoint" />
          </mxGeometry>
        </mxCell>
        <mxCell id="x4EPRl0sg-PK3G8lVyGJ-24" value="" style="endArrow=classic;html=1;rounded=0;" parent="2AKUMBZ1-MISnBU4axUH-1" target="x4EPRl0sg-PK3G8lVyGJ-11" edge="1">
          <mxGeometry width="50" height="50" relative="1" as="geometry">
            <mxPoint x="650" y="790" as="sourcePoint" />
            <mxPoint x="780" y="650" as="targetPoint" />
          </mxGeometry>
        </mxCell>
        <mxCell id="x4EPRl0sg-PK3G8lVyGJ-25" value="" style="endArrow=classic;html=1;rounded=0;" parent="2AKUMBZ1-MISnBU4axUH-1" target="x4EPRl0sg-PK3G8lVyGJ-12" edge="1">
          <mxGeometry width="50" height="50" relative="1" as="geometry">
            <mxPoint x="650" y="800" as="sourcePoint" />
            <mxPoint x="780" y="750" as="targetPoint" />
          </mxGeometry>
        </mxCell>
        <mxCell id="x4EPRl0sg-PK3G8lVyGJ-26" value="" style="endArrow=classic;html=1;rounded=0;exitX=1.05;exitY=0.525;exitDx=0;exitDy=0;exitPerimeter=0;" parent="2AKUMBZ1-MISnBU4axUH-1" source="x4EPRl0sg-PK3G8lVyGJ-5" edge="1">
          <mxGeometry width="50" height="50" relative="1" as="geometry">
            <mxPoint x="485" y="950" as="sourcePoint" />
            <mxPoint x="510" y="790" as="targetPoint" />
            <Array as="points" />
          </mxGeometry>
        </mxCell>
        <mxCell id="x4EPRl0sg-PK3G8lVyGJ-27" value="" style="endArrow=classic;html=1;rounded=0;" parent="2AKUMBZ1-MISnBU4axUH-1" edge="1">
          <mxGeometry width="50" height="50" relative="1" as="geometry">
            <mxPoint x="420" y="779.71" as="sourcePoint" />
            <mxPoint x="510" y="779.71" as="targetPoint" />
            <Array as="points">
              <mxPoint x="450" y="779.71" />
            </Array>
          </mxGeometry>
        </mxCell>
        <mxCell id="53IKFIph6mnC9hIYPUuv-2" value="" style="endArrow=classic;html=1;rounded=0;entryX=-0.014;entryY=0.685;entryDx=0;entryDy=0;entryPerimeter=0;" edge="1" parent="2AKUMBZ1-MISnBU4axUH-1" target="x4EPRl0sg-PK3G8lVyGJ-8">
          <mxGeometry width="50" height="50" relative="1" as="geometry">
            <mxPoint x="650" y="760" as="sourcePoint" />
            <mxPoint x="735" y="758.5714285714284" as="targetPoint" />
          </mxGeometry>
        </mxCell>
      </root>
    </mxGraphModel>
  </diagram>
  <diagram id="lcEsMRVyeaagouuw8lct" name="Page-3">
    <mxGraphModel dx="2314" dy="1075" grid="0" gridSize="10" guides="1" tooltips="1" connect="1" arrows="1" fold="1" page="1" pageScale="1" pageWidth="827" pageHeight="1169" math="0" shadow="0">
      <root>
        <mxCell id="XHwtzuZudY0WM5tqORg2-0" />
        <mxCell id="XHwtzuZudY0WM5tqORg2-1" parent="XHwtzuZudY0WM5tqORg2-0" />
        <mxCell id="XHwtzuZudY0WM5tqORg2-17" style="edgeStyle=orthogonalEdgeStyle;rounded=0;orthogonalLoop=1;jettySize=auto;html=1;exitX=0.5;exitY=1;exitDx=0;exitDy=0;" parent="XHwtzuZudY0WM5tqORg2-1" source="XHwtzuZudY0WM5tqORg2-3" target="XHwtzuZudY0WM5tqORg2-8" edge="1">
          <mxGeometry relative="1" as="geometry" />
        </mxCell>
        <mxCell id="XHwtzuZudY0WM5tqORg2-3" value="" style="whiteSpace=wrap;html=1;aspect=fixed;fillColor=#FFE599;" parent="XHwtzuZudY0WM5tqORg2-1" vertex="1">
          <mxGeometry x="180" y="140" width="140" height="140" as="geometry" />
        </mxCell>
        <mxCell id="XHwtzuZudY0WM5tqORg2-4" value="&lt;font style=&quot;font-size: 18px&quot;&gt;&amp;nbsp;translate unit 1&lt;/font&gt;" style="text;html=1;align=center;verticalAlign=middle;resizable=0;points=[];autosize=1;strokeColor=none;fillColor=none;" parent="XHwtzuZudY0WM5tqORg2-1" vertex="1">
          <mxGeometry x="64" y="110" width="133" height="21" as="geometry" />
        </mxCell>
        <mxCell id="XHwtzuZudY0WM5tqORg2-5" value="&lt;font style=&quot;font-size: 18px&quot;&gt;basic block&lt;/font&gt;" style="rounded=0;whiteSpace=wrap;html=1;fillColor=#B9E0A5;" parent="XHwtzuZudY0WM5tqORg2-1" vertex="1">
          <mxGeometry x="190" y="180" width="120" height="60" as="geometry" />
        </mxCell>
        <mxCell id="XHwtzuZudY0WM5tqORg2-11" value="" style="edgeStyle=orthogonalEdgeStyle;rounded=0;orthogonalLoop=1;jettySize=auto;html=1;entryX=0.5;entryY=0;entryDx=0;entryDy=0;" parent="XHwtzuZudY0WM5tqORg2-1" source="XHwtzuZudY0WM5tqORg2-8" target="XHwtzuZudY0WM5tqORg2-12" edge="1">
          <mxGeometry relative="1" as="geometry">
            <mxPoint x="250" y="520" as="targetPoint" />
          </mxGeometry>
        </mxCell>
        <mxCell id="XHwtzuZudY0WM5tqORg2-8" value="" style="whiteSpace=wrap;html=1;aspect=fixed;fillColor=#FFE599;" parent="XHwtzuZudY0WM5tqORg2-1" vertex="1">
          <mxGeometry x="180" y="310" width="140" height="140" as="geometry" />
        </mxCell>
        <mxCell id="XHwtzuZudY0WM5tqORg2-9" value="&lt;font style=&quot;font-size: 18px&quot;&gt;basic block&lt;/font&gt;" style="rounded=0;whiteSpace=wrap;html=1;fillColor=#B9E0A5;" parent="XHwtzuZudY0WM5tqORg2-1" vertex="1">
          <mxGeometry x="190" y="350" width="120" height="60" as="geometry" />
        </mxCell>
        <mxCell id="XHwtzuZudY0WM5tqORg2-20" style="edgeStyle=orthogonalEdgeStyle;rounded=0;orthogonalLoop=1;jettySize=auto;html=1;exitX=0.5;exitY=1;exitDx=0;exitDy=0;entryX=0.5;entryY=0;entryDx=0;entryDy=0;" parent="XHwtzuZudY0WM5tqORg2-1" source="XHwtzuZudY0WM5tqORg2-12" target="XHwtzuZudY0WM5tqORg2-18" edge="1">
          <mxGeometry relative="1" as="geometry" />
        </mxCell>
        <mxCell id="XHwtzuZudY0WM5tqORg2-12" value="" style="whiteSpace=wrap;html=1;aspect=fixed;fillColor=#FFE599;" parent="XHwtzuZudY0WM5tqORg2-1" vertex="1">
          <mxGeometry x="180" y="480" width="140" height="140" as="geometry" />
        </mxCell>
        <mxCell id="XHwtzuZudY0WM5tqORg2-13" value="&lt;font style=&quot;font-size: 18px&quot;&gt;basic block&lt;/font&gt;" style="rounded=0;whiteSpace=wrap;html=1;fillColor=#B9E0A5;" parent="XHwtzuZudY0WM5tqORg2-1" vertex="1">
          <mxGeometry x="190" y="520" width="120" height="60" as="geometry" />
        </mxCell>
        <mxCell id="XHwtzuZudY0WM5tqORg2-21" style="edgeStyle=orthogonalEdgeStyle;rounded=0;orthogonalLoop=1;jettySize=auto;html=1;exitX=1;exitY=0.5;exitDx=0;exitDy=0;entryX=1;entryY=0.5;entryDx=0;entryDy=0;" parent="XHwtzuZudY0WM5tqORg2-1" source="XHwtzuZudY0WM5tqORg2-18" target="XHwtzuZudY0WM5tqORg2-8" edge="1">
          <mxGeometry relative="1" as="geometry">
            <Array as="points">
              <mxPoint x="360" y="730" />
              <mxPoint x="360" y="380" />
            </Array>
          </mxGeometry>
        </mxCell>
        <mxCell id="XHwtzuZudY0WM5tqORg2-23" value="" style="edgeStyle=orthogonalEdgeStyle;rounded=0;orthogonalLoop=1;jettySize=auto;html=1;" parent="XHwtzuZudY0WM5tqORg2-1" source="XHwtzuZudY0WM5tqORg2-18" edge="1">
          <mxGeometry relative="1" as="geometry">
            <mxPoint x="250" y="880" as="targetPoint" />
          </mxGeometry>
        </mxCell>
        <mxCell id="XHwtzuZudY0WM5tqORg2-18" value="" style="whiteSpace=wrap;html=1;aspect=fixed;fillColor=#FFE599;" parent="XHwtzuZudY0WM5tqORg2-1" vertex="1">
          <mxGeometry x="180" y="660" width="140" height="140" as="geometry" />
        </mxCell>
        <mxCell id="XHwtzuZudY0WM5tqORg2-19" value="&lt;font style=&quot;font-size: 18px&quot;&gt;basic block&lt;/font&gt;" style="rounded=0;whiteSpace=wrap;html=1;fillColor=#B9E0A5;" parent="XHwtzuZudY0WM5tqORg2-1" vertex="1">
          <mxGeometry x="190" y="700" width="120" height="60" as="geometry" />
        </mxCell>
        <mxCell id="XHwtzuZudY0WM5tqORg2-24" value="&lt;font style=&quot;font-size: 18px&quot;&gt;......&lt;/font&gt;" style="text;html=1;align=center;verticalAlign=middle;resizable=0;points=[];autosize=1;strokeColor=none;fillColor=none;" parent="XHwtzuZudY0WM5tqORg2-1" vertex="1">
          <mxGeometry x="230" y="890" width="40" height="21" as="geometry" />
        </mxCell>
        <mxCell id="XHwtzuZudY0WM5tqORg2-28" value="&lt;font style=&quot;font-size: 18px&quot;&gt;&amp;nbsp;translate unit 2&lt;/font&gt;" style="text;html=1;align=center;verticalAlign=middle;resizable=0;points=[];autosize=1;strokeColor=none;fillColor=none;" parent="XHwtzuZudY0WM5tqORg2-1" vertex="1">
          <mxGeometry x="64" y="289" width="133" height="21" as="geometry" />
        </mxCell>
        <mxCell id="XHwtzuZudY0WM5tqORg2-29" value="&lt;font style=&quot;font-size: 18px&quot;&gt;&amp;nbsp;translate unit 3&lt;/font&gt;" style="text;html=1;align=center;verticalAlign=middle;resizable=0;points=[];autosize=1;strokeColor=none;fillColor=none;" parent="XHwtzuZudY0WM5tqORg2-1" vertex="1">
          <mxGeometry x="64" y="460" width="133" height="21" as="geometry" />
        </mxCell>
        <mxCell id="XHwtzuZudY0WM5tqORg2-30" value="&lt;font style=&quot;font-size: 18px&quot;&gt;&amp;nbsp;translate unit 4&lt;/font&gt;" style="text;html=1;align=center;verticalAlign=middle;resizable=0;points=[];autosize=1;strokeColor=none;fillColor=none;" parent="XHwtzuZudY0WM5tqORg2-1" vertex="1">
          <mxGeometry x="64" y="640" width="133" height="21" as="geometry" />
        </mxCell>
        <mxCell id="XHwtzuZudY0WM5tqORg2-34" value="" style="whiteSpace=wrap;html=1;aspect=fixed;fillColor=#FFE599;" parent="XHwtzuZudY0WM5tqORg2-1" vertex="1">
          <mxGeometry x="485" y="140" width="335" height="335" as="geometry" />
        </mxCell>
        <mxCell id="XHwtzuZudY0WM5tqORg2-41" style="edgeStyle=orthogonalEdgeStyle;rounded=0;orthogonalLoop=1;jettySize=auto;html=1;exitX=0.5;exitY=1;exitDx=0;exitDy=0;entryX=0.5;entryY=0;entryDx=0;entryDy=0;" parent="XHwtzuZudY0WM5tqORg2-1" source="XHwtzuZudY0WM5tqORg2-35" target="XHwtzuZudY0WM5tqORg2-36" edge="1">
          <mxGeometry relative="1" as="geometry" />
        </mxCell>
        <mxCell id="XHwtzuZudY0WM5tqORg2-35" value="&lt;font style=&quot;font-size: 18px&quot;&gt;basic block&lt;/font&gt;" style="rounded=0;whiteSpace=wrap;html=1;fillColor=#B9E0A5;" parent="XHwtzuZudY0WM5tqORg2-1" vertex="1">
          <mxGeometry x="597.5" y="150" width="120" height="60" as="geometry" />
        </mxCell>
        <mxCell id="XHwtzuZudY0WM5tqORg2-42" style="edgeStyle=orthogonalEdgeStyle;rounded=0;orthogonalLoop=1;jettySize=auto;html=1;exitX=0.5;exitY=1;exitDx=0;exitDy=0;entryX=0.5;entryY=0;entryDx=0;entryDy=0;" parent="XHwtzuZudY0WM5tqORg2-1" source="XHwtzuZudY0WM5tqORg2-36" target="XHwtzuZudY0WM5tqORg2-37" edge="1">
          <mxGeometry relative="1" as="geometry" />
        </mxCell>
        <mxCell id="XHwtzuZudY0WM5tqORg2-36" value="&lt;font style=&quot;font-size: 18px&quot;&gt;basic block&lt;/font&gt;" style="rounded=0;whiteSpace=wrap;html=1;fillColor=#B9E0A5;" parent="XHwtzuZudY0WM5tqORg2-1" vertex="1">
          <mxGeometry x="597.5" y="240" width="120" height="60" as="geometry" />
        </mxCell>
        <mxCell id="XHwtzuZudY0WM5tqORg2-43" style="edgeStyle=orthogonalEdgeStyle;rounded=0;orthogonalLoop=1;jettySize=auto;html=1;exitX=0.5;exitY=1;exitDx=0;exitDy=0;" parent="XHwtzuZudY0WM5tqORg2-1" source="XHwtzuZudY0WM5tqORg2-37" target="XHwtzuZudY0WM5tqORg2-38" edge="1">
          <mxGeometry relative="1" as="geometry" />
        </mxCell>
        <mxCell id="XHwtzuZudY0WM5tqORg2-37" value="&lt;font style=&quot;font-size: 18px&quot;&gt;basic block&lt;/font&gt;" style="rounded=0;whiteSpace=wrap;html=1;fillColor=#B9E0A5;" parent="XHwtzuZudY0WM5tqORg2-1" vertex="1">
          <mxGeometry x="597.5" y="320" width="120" height="60" as="geometry" />
        </mxCell>
        <mxCell id="XHwtzuZudY0WM5tqORg2-64" style="edgeStyle=orthogonalEdgeStyle;rounded=0;orthogonalLoop=1;jettySize=auto;html=1;exitX=1;exitY=0.5;exitDx=0;exitDy=0;entryX=1;entryY=0.5;entryDx=0;entryDy=0;" parent="XHwtzuZudY0WM5tqORg2-1" source="XHwtzuZudY0WM5tqORg2-38" target="XHwtzuZudY0WM5tqORg2-36" edge="1">
          <mxGeometry relative="1" as="geometry">
            <Array as="points">
              <mxPoint x="768" y="430" />
              <mxPoint x="768" y="270" />
            </Array>
          </mxGeometry>
        </mxCell>
        <mxCell id="XHwtzuZudY0WM5tqORg2-38" value="&lt;font style=&quot;font-size: 18px&quot;&gt;basic block&lt;/font&gt;" style="rounded=0;whiteSpace=wrap;html=1;fillColor=#B9E0A5;" parent="XHwtzuZudY0WM5tqORg2-1" vertex="1">
          <mxGeometry x="597.5" y="400" width="120" height="60" as="geometry" />
        </mxCell>
        <mxCell id="XHwtzuZudY0WM5tqORg2-44" value="" style="whiteSpace=wrap;html=1;aspect=fixed;fillColor=#FFE599;" parent="XHwtzuZudY0WM5tqORg2-1" vertex="1">
          <mxGeometry x="485" y="500" width="335" height="335" as="geometry" />
        </mxCell>
        <mxCell id="XHwtzuZudY0WM5tqORg2-45" style="edgeStyle=orthogonalEdgeStyle;rounded=0;orthogonalLoop=1;jettySize=auto;html=1;exitX=0.5;exitY=1;exitDx=0;exitDy=0;entryX=0.5;entryY=0;entryDx=0;entryDy=0;" parent="XHwtzuZudY0WM5tqORg2-1" source="XHwtzuZudY0WM5tqORg2-46" target="XHwtzuZudY0WM5tqORg2-48" edge="1">
          <mxGeometry relative="1" as="geometry" />
        </mxCell>
        <mxCell id="XHwtzuZudY0WM5tqORg2-55" style="edgeStyle=orthogonalEdgeStyle;rounded=0;orthogonalLoop=1;jettySize=auto;html=1;exitX=0.5;exitY=0;exitDx=0;exitDy=0;" parent="XHwtzuZudY0WM5tqORg2-1" source="XHwtzuZudY0WM5tqORg2-46" edge="1">
          <mxGeometry relative="1" as="geometry">
            <mxPoint x="657.5" y="555" as="targetPoint" />
          </mxGeometry>
        </mxCell>
        <mxCell id="XHwtzuZudY0WM5tqORg2-46" value="&lt;font style=&quot;font-size: 18px&quot;&gt;basic block&lt;/font&gt;" style="rounded=0;whiteSpace=wrap;html=1;fillColor=#B9E0A5;" parent="XHwtzuZudY0WM5tqORg2-1" vertex="1">
          <mxGeometry x="597.5" y="520" width="120" height="60" as="geometry" />
        </mxCell>
        <mxCell id="XHwtzuZudY0WM5tqORg2-47" style="edgeStyle=orthogonalEdgeStyle;rounded=0;orthogonalLoop=1;jettySize=auto;html=1;exitX=0.5;exitY=1;exitDx=0;exitDy=0;entryX=0.5;entryY=0;entryDx=0;entryDy=0;" parent="XHwtzuZudY0WM5tqORg2-1" source="XHwtzuZudY0WM5tqORg2-48" target="XHwtzuZudY0WM5tqORg2-50" edge="1">
          <mxGeometry relative="1" as="geometry" />
        </mxCell>
        <mxCell id="XHwtzuZudY0WM5tqORg2-48" value="&lt;font style=&quot;font-size: 18px&quot;&gt;basic block&lt;/font&gt;" style="rounded=0;whiteSpace=wrap;html=1;fillColor=#B9E0A5;" parent="XHwtzuZudY0WM5tqORg2-1" vertex="1">
          <mxGeometry x="597.5" y="600" width="120" height="60" as="geometry" />
        </mxCell>
        <mxCell id="XHwtzuZudY0WM5tqORg2-49" style="edgeStyle=orthogonalEdgeStyle;rounded=0;orthogonalLoop=1;jettySize=auto;html=1;exitX=0.5;exitY=1;exitDx=0;exitDy=0;" parent="XHwtzuZudY0WM5tqORg2-1" source="XHwtzuZudY0WM5tqORg2-50" target="XHwtzuZudY0WM5tqORg2-51" edge="1">
          <mxGeometry relative="1" as="geometry" />
        </mxCell>
        <mxCell id="XHwtzuZudY0WM5tqORg2-50" value="&lt;font style=&quot;font-size: 18px&quot;&gt;basic block&lt;/font&gt;" style="rounded=0;whiteSpace=wrap;html=1;fillColor=#B9E0A5;" parent="XHwtzuZudY0WM5tqORg2-1" vertex="1">
          <mxGeometry x="597.5" y="680" width="120" height="60" as="geometry" />
        </mxCell>
        <mxCell id="XHwtzuZudY0WM5tqORg2-66" style="edgeStyle=orthogonalEdgeStyle;rounded=0;orthogonalLoop=1;jettySize=auto;html=1;exitX=0.5;exitY=1;exitDx=0;exitDy=0;entryX=0.472;entryY=0;entryDx=0;entryDy=0;entryPerimeter=0;" parent="XHwtzuZudY0WM5tqORg2-1" source="XHwtzuZudY0WM5tqORg2-51" target="XHwtzuZudY0WM5tqORg2-65" edge="1">
          <mxGeometry relative="1" as="geometry" />
        </mxCell>
        <mxCell id="XHwtzuZudY0WM5tqORg2-51" value="&lt;font style=&quot;font-size: 18px&quot;&gt;basic block&lt;/font&gt;" style="rounded=0;whiteSpace=wrap;html=1;fillColor=#B9E0A5;" parent="XHwtzuZudY0WM5tqORg2-1" vertex="1">
          <mxGeometry x="597.5" y="760" width="120" height="60" as="geometry" />
        </mxCell>
        <mxCell id="XHwtzuZudY0WM5tqORg2-57" value="" style="endArrow=classic;html=1;rounded=0;entryX=0.5;entryY=0;entryDx=0;entryDy=0;exitX=0.5;exitY=1;exitDx=0;exitDy=0;" parent="XHwtzuZudY0WM5tqORg2-1" source="XHwtzuZudY0WM5tqORg2-38" target="XHwtzuZudY0WM5tqORg2-46" edge="1">
          <mxGeometry width="50" height="50" relative="1" as="geometry">
            <mxPoint x="567.5" y="540" as="sourcePoint" />
            <mxPoint x="617.5" y="490" as="targetPoint" />
          </mxGeometry>
        </mxCell>
        <mxCell id="XHwtzuZudY0WM5tqORg2-65" value="&lt;font style=&quot;font-size: 18px&quot;&gt;.......&lt;/font&gt;" style="text;html=1;align=center;verticalAlign=middle;resizable=0;points=[];autosize=1;strokeColor=none;fillColor=none;" parent="XHwtzuZudY0WM5tqORg2-1" vertex="1">
          <mxGeometry x="635.5" y="880" width="45" height="21" as="geometry" />
        </mxCell>
        <mxCell id="XHwtzuZudY0WM5tqORg2-67" value="&lt;font style=&quot;font-size: 18px&quot;&gt;&amp;nbsp;translate unit 1&lt;/font&gt;" style="text;html=1;align=center;verticalAlign=middle;resizable=0;points=[];autosize=1;strokeColor=none;fillColor=none;" parent="XHwtzuZudY0WM5tqORg2-1" vertex="1">
          <mxGeometry x="369" y="110" width="133" height="21" as="geometry" />
        </mxCell>
        <mxCell id="XHwtzuZudY0WM5tqORg2-68" value="&lt;font style=&quot;font-size: 18px&quot;&gt;&amp;nbsp;translate unit 2&lt;/font&gt;" style="text;html=1;align=center;verticalAlign=middle;resizable=0;points=[];autosize=1;strokeColor=none;fillColor=none;" parent="XHwtzuZudY0WM5tqORg2-1" vertex="1">
          <mxGeometry x="369" y="479" width="133" height="21" as="geometry" />
        </mxCell>
        <mxCell id="-svbNJNMwchK_m9XSZCH-0" value="" style="ellipse;whiteSpace=wrap;html=1;fillColor=#FFE599;" parent="XHwtzuZudY0WM5tqORg2-1" vertex="1">
          <mxGeometry x="1197" y="73" width="120" height="80" as="geometry" />
        </mxCell>
        <mxCell id="-svbNJNMwchK_m9XSZCH-1" value="function 1" style="text;html=1;align=center;verticalAlign=middle;resizable=0;points=[];autosize=1;strokeColor=none;fillColor=none;fontSize=18;" parent="XHwtzuZudY0WM5tqORg2-1" vertex="1">
          <mxGeometry x="485" y="144" width="88" height="26" as="geometry" />
        </mxCell>
        <mxCell id="-svbNJNMwchK_m9XSZCH-2" value="function 2" style="text;html=1;align=center;verticalAlign=middle;resizable=0;points=[];autosize=1;strokeColor=none;fillColor=none;fontSize=18;" parent="XHwtzuZudY0WM5tqORg2-1" vertex="1">
          <mxGeometry x="485" y="500" width="88" height="26" as="geometry" />
        </mxCell>
      </root>
    </mxGraphModel>
  </diagram>
  <diagram id="lswsi_vOCZrqFk89D57d" name="Page-4">
    <mxGraphModel dx="1802" dy="787" grid="0" gridSize="10" guides="1" tooltips="1" connect="1" arrows="1" fold="1" page="0" pageScale="1" pageWidth="827" pageHeight="1169" math="0" shadow="0">
      <root>
        <mxCell id="9NkyYagf0J0nAtwWbKZk-0" />
        <mxCell id="9NkyYagf0J0nAtwWbKZk-1" parent="9NkyYagf0J0nAtwWbKZk-0" />
        <mxCell id="9NkyYagf0J0nAtwWbKZk-9" value="" style="edgeStyle=orthogonalEdgeStyle;rounded=0;orthogonalLoop=1;jettySize=auto;html=1;fontSize=18;" parent="9NkyYagf0J0nAtwWbKZk-1" source="9NkyYagf0J0nAtwWbKZk-5" target="9NkyYagf0J0nAtwWbKZk-8" edge="1">
          <mxGeometry relative="1" as="geometry" />
        </mxCell>
        <mxCell id="9NkyYagf0J0nAtwWbKZk-5" value="上下文保存" style="rounded=0;whiteSpace=wrap;html=1;fontSize=18;fillColor=none;" parent="9NkyYagf0J0nAtwWbKZk-1" vertex="1">
          <mxGeometry x="230" y="160" width="120" height="60" as="geometry" />
        </mxCell>
        <mxCell id="9NkyYagf0J0nAtwWbKZk-11" value="" style="edgeStyle=orthogonalEdgeStyle;rounded=0;orthogonalLoop=1;jettySize=auto;html=1;fontSize=18;" parent="9NkyYagf0J0nAtwWbKZk-1" source="9NkyYagf0J0nAtwWbKZk-8" target="9NkyYagf0J0nAtwWbKZk-10" edge="1">
          <mxGeometry relative="1" as="geometry" />
        </mxCell>
        <mxCell id="9NkyYagf0J0nAtwWbKZk-8" value="在所有的块地址中进行查询" style="rounded=0;whiteSpace=wrap;html=1;fontSize=18;fillColor=none;" parent="9NkyYagf0J0nAtwWbKZk-1" vertex="1">
          <mxGeometry x="230" y="260" width="120" height="60" as="geometry" />
        </mxCell>
        <mxCell id="9NkyYagf0J0nAtwWbKZk-18" value="" style="edgeStyle=orthogonalEdgeStyle;rounded=0;orthogonalLoop=1;jettySize=auto;html=1;fontSize=18;" parent="9NkyYagf0J0nAtwWbKZk-1" source="9NkyYagf0J0nAtwWbKZk-10" target="9NkyYagf0J0nAtwWbKZk-17" edge="1">
          <mxGeometry relative="1" as="geometry" />
        </mxCell>
        <mxCell id="9NkyYagf0J0nAtwWbKZk-10" value="上下文恢复" style="rounded=0;whiteSpace=wrap;html=1;fontSize=18;fillColor=none;" parent="9NkyYagf0J0nAtwWbKZk-1" vertex="1">
          <mxGeometry x="230" y="350" width="120" height="60" as="geometry" />
        </mxCell>
        <mxCell id="9NkyYagf0J0nAtwWbKZk-12" value="" style="whiteSpace=wrap;html=1;aspect=fixed;fontSize=18;fillColor=none;" parent="9NkyYagf0J0nAtwWbKZk-1" vertex="1">
          <mxGeometry x="150" y="130" width="290" height="290" as="geometry" />
        </mxCell>
        <mxCell id="9NkyYagf0J0nAtwWbKZk-16" style="edgeStyle=orthogonalEdgeStyle;rounded=0;orthogonalLoop=1;jettySize=auto;html=1;exitX=0.5;exitY=1;exitDx=0;exitDy=0;fontSize=18;" parent="9NkyYagf0J0nAtwWbKZk-1" source="9NkyYagf0J0nAtwWbKZk-15" edge="1">
          <mxGeometry relative="1" as="geometry">
            <mxPoint x="290" y="160" as="targetPoint" />
          </mxGeometry>
        </mxCell>
        <mxCell id="9NkyYagf0J0nAtwWbKZk-15" value="原程序地址" style="shape=parallelogram;perimeter=parallelogramPerimeter;whiteSpace=wrap;html=1;fixedSize=1;fontSize=18;fillColor=none;" parent="9NkyYagf0J0nAtwWbKZk-1" vertex="1">
          <mxGeometry x="220" y="50" width="140" height="60" as="geometry" />
        </mxCell>
        <mxCell id="9NkyYagf0J0nAtwWbKZk-17" value="目标基本快" style="shape=parallelogram;perimeter=parallelogramPerimeter;whiteSpace=wrap;html=1;fixedSize=1;fontSize=18;fillColor=none;" parent="9NkyYagf0J0nAtwWbKZk-1" vertex="1">
          <mxGeometry x="220" y="440" width="140" height="60" as="geometry" />
        </mxCell>
        <mxCell id="9NkyYagf0J0nAtwWbKZk-20" value="helper函数" style="text;html=1;align=center;verticalAlign=middle;resizable=0;points=[];autosize=1;strokeColor=none;fillColor=none;fontSize=18;" parent="9NkyYagf0J0nAtwWbKZk-1" vertex="1">
          <mxGeometry x="150" y="130" width="100" height="30" as="geometry" />
        </mxCell>
        <mxCell id="9NkyYagf0J0nAtwWbKZk-28" value="" style="edgeStyle=orthogonalEdgeStyle;rounded=0;orthogonalLoop=1;jettySize=auto;html=1;fontSize=18;" parent="9NkyYagf0J0nAtwWbKZk-1" source="9NkyYagf0J0nAtwWbKZk-29" target="9NkyYagf0J0nAtwWbKZk-31" edge="1">
          <mxGeometry relative="1" as="geometry" />
        </mxCell>
        <mxCell id="9NkyYagf0J0nAtwWbKZk-29" value="上下文保存" style="rounded=0;whiteSpace=wrap;html=1;fontSize=18;fillColor=none;" parent="9NkyYagf0J0nAtwWbKZk-1" vertex="1">
          <mxGeometry x="995" y="250" width="120" height="60" as="geometry" />
        </mxCell>
        <mxCell id="9NkyYagf0J0nAtwWbKZk-30" value="" style="edgeStyle=orthogonalEdgeStyle;rounded=0;orthogonalLoop=1;jettySize=auto;html=1;fontSize=18;" parent="9NkyYagf0J0nAtwWbKZk-1" source="9NkyYagf0J0nAtwWbKZk-31" target="9NkyYagf0J0nAtwWbKZk-33" edge="1">
          <mxGeometry relative="1" as="geometry" />
        </mxCell>
        <mxCell id="9NkyYagf0J0nAtwWbKZk-31" value="在所有的块地址中进行查询" style="rounded=0;whiteSpace=wrap;html=1;fontSize=18;fillColor=none;" parent="9NkyYagf0J0nAtwWbKZk-1" vertex="1">
          <mxGeometry x="995" y="350" width="120" height="60" as="geometry" />
        </mxCell>
        <mxCell id="9NkyYagf0J0nAtwWbKZk-49" style="edgeStyle=orthogonalEdgeStyle;rounded=0;orthogonalLoop=1;jettySize=auto;html=1;exitX=0.5;exitY=1;exitDx=0;exitDy=0;fontSize=18;" parent="9NkyYagf0J0nAtwWbKZk-1" source="9NkyYagf0J0nAtwWbKZk-33" edge="1">
          <mxGeometry relative="1" as="geometry">
            <mxPoint x="760" y="550" as="targetPoint" />
            <Array as="points">
              <mxPoint x="1055" y="540" />
              <mxPoint x="760" y="540" />
            </Array>
          </mxGeometry>
        </mxCell>
        <mxCell id="9NkyYagf0J0nAtwWbKZk-33" value="上下文恢复" style="rounded=0;whiteSpace=wrap;html=1;fontSize=18;fillColor=none;" parent="9NkyYagf0J0nAtwWbKZk-1" vertex="1">
          <mxGeometry x="995" y="440" width="120" height="60" as="geometry" />
        </mxCell>
        <mxCell id="9NkyYagf0J0nAtwWbKZk-34" value="" style="whiteSpace=wrap;html=1;aspect=fixed;fontSize=18;fillColor=none;" parent="9NkyYagf0J0nAtwWbKZk-1" vertex="1">
          <mxGeometry x="910" y="220" width="290" height="290" as="geometry" />
        </mxCell>
        <mxCell id="9NkyYagf0J0nAtwWbKZk-35" style="edgeStyle=orthogonalEdgeStyle;rounded=0;orthogonalLoop=1;jettySize=auto;html=1;exitX=0.5;exitY=1;exitDx=0;exitDy=0;fontSize=18;" parent="9NkyYagf0J0nAtwWbKZk-1" source="9NkyYagf0J0nAtwWbKZk-36" edge="1">
          <mxGeometry relative="1" as="geometry">
            <mxPoint x="760" y="160" as="targetPoint" />
          </mxGeometry>
        </mxCell>
        <mxCell id="9NkyYagf0J0nAtwWbKZk-36" value="原程序地址" style="shape=parallelogram;perimeter=parallelogramPerimeter;whiteSpace=wrap;html=1;fixedSize=1;fontSize=18;fillColor=none;" parent="9NkyYagf0J0nAtwWbKZk-1" vertex="1">
          <mxGeometry x="690" y="50" width="140" height="60" as="geometry" />
        </mxCell>
        <mxCell id="9NkyYagf0J0nAtwWbKZk-37" value="目标基本快" style="shape=parallelogram;perimeter=parallelogramPerimeter;whiteSpace=wrap;html=1;fixedSize=1;fontSize=18;fillColor=none;" parent="9NkyYagf0J0nAtwWbKZk-1" vertex="1">
          <mxGeometry x="690" y="585" width="140" height="60" as="geometry" />
        </mxCell>
        <mxCell id="9NkyYagf0J0nAtwWbKZk-38" value="helper函数" style="text;html=1;align=center;verticalAlign=middle;resizable=0;points=[];autosize=1;strokeColor=none;fillColor=none;fontSize=18;" parent="9NkyYagf0J0nAtwWbKZk-1" vertex="1">
          <mxGeometry x="915" y="220" width="100" height="30" as="geometry" />
        </mxCell>
        <mxCell id="9NkyYagf0J0nAtwWbKZk-40" style="edgeStyle=orthogonalEdgeStyle;rounded=0;orthogonalLoop=1;jettySize=auto;html=1;exitX=0.5;exitY=1;exitDx=0;exitDy=0;entryX=0.5;entryY=0;entryDx=0;entryDy=0;fontSize=18;" parent="9NkyYagf0J0nAtwWbKZk-1" source="9NkyYagf0J0nAtwWbKZk-39" target="9NkyYagf0J0nAtwWbKZk-37" edge="1">
          <mxGeometry relative="1" as="geometry" />
        </mxCell>
        <mxCell id="9NkyYagf0J0nAtwWbKZk-43" style="edgeStyle=orthogonalEdgeStyle;rounded=0;orthogonalLoop=1;jettySize=auto;html=1;exitX=1;exitY=0.5;exitDx=0;exitDy=0;entryX=0.5;entryY=0;entryDx=0;entryDy=0;fontSize=18;" parent="9NkyYagf0J0nAtwWbKZk-1" source="9NkyYagf0J0nAtwWbKZk-39" target="9NkyYagf0J0nAtwWbKZk-29" edge="1">
          <mxGeometry relative="1" as="geometry" />
        </mxCell>
        <mxCell id="9NkyYagf0J0nAtwWbKZk-39" value="IPTC命中？" style="rhombus;whiteSpace=wrap;html=1;fontSize=18;fillColor=none;" parent="9NkyYagf0J0nAtwWbKZk-1" vertex="1">
          <mxGeometry x="670" y="160" width="180" height="80" as="geometry" />
        </mxCell>
        <mxCell id="9NkyYagf0J0nAtwWbKZk-42" value="是" style="text;html=1;align=center;verticalAlign=middle;resizable=0;points=[];autosize=1;strokeColor=none;fillColor=none;fontSize=18;" parent="9NkyYagf0J0nAtwWbKZk-1" vertex="1">
          <mxGeometry x="720" y="310" width="30" height="30" as="geometry" />
        </mxCell>
        <mxCell id="9NkyYagf0J0nAtwWbKZk-44" value="否" style="text;html=1;align=center;verticalAlign=middle;resizable=0;points=[];autosize=1;strokeColor=none;fillColor=none;fontSize=18;" parent="9NkyYagf0J0nAtwWbKZk-1" vertex="1">
          <mxGeometry x="925" y="165" width="30" height="30" as="geometry" />
        </mxCell>
      </root>
    </mxGraphModel>
  </diagram>
  <diagram id="liCt2LRPva6qylMXZ3uw" name="Page-5">
    <mxGraphModel dx="1802" dy="787" grid="1" gridSize="10" guides="1" tooltips="1" connect="1" arrows="1" fold="1" page="1" pageScale="1" pageWidth="827" pageHeight="1169" math="0" shadow="0">
      <root>
        <mxCell id="kF6PPkQ8vPPbU_ElFEDH-0" />
        <mxCell id="kF6PPkQ8vPPbU_ElFEDH-1" parent="kF6PPkQ8vPPbU_ElFEDH-0" />
        <mxCell id="kF6PPkQ8vPPbU_ElFEDH-11" value="target basic block" style="rounded=0;whiteSpace=wrap;html=1;" parent="kF6PPkQ8vPPbU_ElFEDH-1" vertex="1">
          <mxGeometry x="620" y="110" width="120" height="60" as="geometry" />
        </mxCell>
        <mxCell id="kF6PPkQ8vPPbU_ElFEDH-12" value="next basic block" style="rounded=0;whiteSpace=wrap;html=1;" parent="kF6PPkQ8vPPbU_ElFEDH-1" vertex="1">
          <mxGeometry x="620" y="250" width="120" height="60" as="geometry" />
        </mxCell>
        <mxCell id="kF6PPkQ8vPPbU_ElFEDH-13" value="current basic block" style="rounded=0;whiteSpace=wrap;html=1;" parent="kF6PPkQ8vPPbU_ElFEDH-1" vertex="1">
          <mxGeometry x="400" y="110" width="180" height="180" as="geometry" />
        </mxCell>
        <mxCell id="kF6PPkQ8vPPbU_ElFEDH-14" value="bne" style="rounded=0;whiteSpace=wrap;html=1;" parent="kF6PPkQ8vPPbU_ElFEDH-1" vertex="1">
          <mxGeometry x="500" y="230" width="80" height="20" as="geometry" />
        </mxCell>
        <mxCell id="kF6PPkQ8vPPbU_ElFEDH-20" style="edgeStyle=orthogonalEdgeStyle;rounded=0;orthogonalLoop=1;jettySize=auto;html=1;exitX=1;exitY=0.5;exitDx=0;exitDy=0;entryX=0;entryY=0.75;entryDx=0;entryDy=0;" parent="kF6PPkQ8vPPbU_ElFEDH-1" source="kF6PPkQ8vPPbU_ElFEDH-15" target="kF6PPkQ8vPPbU_ElFEDH-11" edge="1">
          <mxGeometry relative="1" as="geometry" />
        </mxCell>
        <mxCell id="kF6PPkQ8vPPbU_ElFEDH-15" value="b" style="rounded=0;whiteSpace=wrap;html=1;" parent="kF6PPkQ8vPPbU_ElFEDH-1" vertex="1">
          <mxGeometry x="500" y="250" width="80" height="20" as="geometry" />
        </mxCell>
        <mxCell id="kF6PPkQ8vPPbU_ElFEDH-21" style="edgeStyle=orthogonalEdgeStyle;rounded=0;orthogonalLoop=1;jettySize=auto;html=1;exitX=1;exitY=0.5;exitDx=0;exitDy=0;entryX=0;entryY=0.5;entryDx=0;entryDy=0;" parent="kF6PPkQ8vPPbU_ElFEDH-1" source="kF6PPkQ8vPPbU_ElFEDH-16" target="kF6PPkQ8vPPbU_ElFEDH-12" edge="1">
          <mxGeometry relative="1" as="geometry" />
        </mxCell>
        <mxCell id="kF6PPkQ8vPPbU_ElFEDH-16" value="b" style="rounded=0;whiteSpace=wrap;html=1;" parent="kF6PPkQ8vPPbU_ElFEDH-1" vertex="1">
          <mxGeometry x="500" y="270" width="80" height="20" as="geometry" />
        </mxCell>
        <mxCell id="kF6PPkQ8vPPbU_ElFEDH-17" value="label a" style="text;html=1;align=center;verticalAlign=middle;resizable=0;points=[];autosize=1;strokeColor=none;fillColor=none;" parent="kF6PPkQ8vPPbU_ElFEDH-1" vertex="1">
          <mxGeometry x="445" y="250" width="50" height="20" as="geometry" />
        </mxCell>
        <mxCell id="kF6PPkQ8vPPbU_ElFEDH-18" value="label b" style="text;html=1;align=center;verticalAlign=middle;resizable=0;points=[];autosize=1;strokeColor=none;fillColor=none;" parent="kF6PPkQ8vPPbU_ElFEDH-1" vertex="1">
          <mxGeometry x="445" y="270" width="50" height="20" as="geometry" />
        </mxCell>
      </root>
    </mxGraphModel>
  </diagram>
  <diagram id="UFnftkFdHSMe9jqBt0wU" name="Page-6">
    <mxGraphModel dx="1802" dy="787" grid="1" gridSize="10" guides="1" tooltips="1" connect="1" arrows="1" fold="1" page="1" pageScale="1" pageWidth="827" pageHeight="1169" math="0" shadow="0">
      <root>
        <mxCell id="Le4ho8X_vXLu1Hv5ubrc-0" />
        <mxCell id="Le4ho8X_vXLu1Hv5ubrc-1" parent="Le4ho8X_vXLu1Hv5ubrc-0" />
        <mxCell id="srMlXKbBfqZ-3rPWpDys-0" value="current basic block" style="rounded=0;whiteSpace=wrap;html=1;" parent="Le4ho8X_vXLu1Hv5ubrc-1" vertex="1">
          <mxGeometry x="400" y="170" width="180" height="120" as="geometry" />
        </mxCell>
        <mxCell id="7EfPjVYFU1ptcXEkNIkH-5" style="edgeStyle=orthogonalEdgeStyle;rounded=0;orthogonalLoop=1;jettySize=auto;html=1;exitX=1;exitY=0.5;exitDx=0;exitDy=0;entryX=0;entryY=0.5;entryDx=0;entryDy=0;" parent="Le4ho8X_vXLu1Hv5ubrc-1" source="srMlXKbBfqZ-3rPWpDys-1" target="7EfPjVYFU1ptcXEkNIkH-0" edge="1">
          <mxGeometry relative="1" as="geometry" />
        </mxCell>
        <mxCell id="srMlXKbBfqZ-3rPWpDys-1" value="bne" style="rounded=0;whiteSpace=wrap;html=1;" parent="Le4ho8X_vXLu1Hv5ubrc-1" vertex="1">
          <mxGeometry x="500" y="270" width="80" height="20" as="geometry" />
        </mxCell>
        <mxCell id="7EfPjVYFU1ptcXEkNIkH-0" value="target basic block" style="rounded=0;whiteSpace=wrap;html=1;" parent="Le4ho8X_vXLu1Hv5ubrc-1" vertex="1">
          <mxGeometry x="630" y="250" width="120" height="60" as="geometry" />
        </mxCell>
        <mxCell id="7EfPjVYFU1ptcXEkNIkH-1" value="next basic block" style="rounded=0;whiteSpace=wrap;html=1;" parent="Le4ho8X_vXLu1Hv5ubrc-1" vertex="1">
          <mxGeometry x="400" y="290" width="180" height="60" as="geometry" />
        </mxCell>
      </root>
    </mxGraphModel>
  </diagram>
  <diagram id="x4WEVtEYYyI8jEI3Nd3T" name="Page-7">
    <mxGraphModel dx="1802" dy="787" grid="1" gridSize="10" guides="1" tooltips="1" connect="1" arrows="1" fold="1" page="1" pageScale="1" pageWidth="827" pageHeight="1169" math="0" shadow="0">
      <root>
        <mxCell id="XHt_fw5lU9NrUzmbYUiy-0" />
        <mxCell id="XHt_fw5lU9NrUzmbYUiy-1" parent="XHt_fw5lU9NrUzmbYUiy-0" />
        <mxCell id="XHt_fw5lU9NrUzmbYUiy-2" value="basick block a&lt;br&gt;" style="rounded=0;whiteSpace=wrap;html=1;fillColor=#FFFF00;" parent="XHt_fw5lU9NrUzmbYUiy-1" vertex="1">
          <mxGeometry x="350" y="200" width="120" height="110" as="geometry" />
        </mxCell>
        <mxCell id="XHt_fw5lU9NrUzmbYUiy-4" value="basic block b" style="whiteSpace=wrap;html=1;fillColor=#00FF00;" parent="XHt_fw5lU9NrUzmbYUiy-1" vertex="1">
          <mxGeometry x="350" y="310" width="120" height="100" as="geometry" />
        </mxCell>
        <mxCell id="XHt_fw5lU9NrUzmbYUiy-5" value="" style="rounded=0;whiteSpace=wrap;html=1;fillColor=#FFFF00;" parent="XHt_fw5lU9NrUzmbYUiy-1" vertex="1">
          <mxGeometry x="350" y="290" width="120" height="20" as="geometry" />
        </mxCell>
        <mxCell id="XHt_fw5lU9NrUzmbYUiy-9" value="" style="rounded=0;whiteSpace=wrap;html=1;fillColor=#FF0000;" parent="XHt_fw5lU9NrUzmbYUiy-1" vertex="1">
          <mxGeometry x="350" y="310" width="120" height="20" as="geometry" />
        </mxCell>
        <mxCell id="XHt_fw5lU9NrUzmbYUiy-11" value="&lt;b&gt;lock cmpxchg&lt;/b&gt;" style="text;html=1;strokeColor=none;fillColor=none;align=center;verticalAlign=middle;whiteSpace=wrap;rounded=0;" parent="XHt_fw5lU9NrUzmbYUiy-1" vertex="1">
          <mxGeometry x="380" y="290" width="60" height="40" as="geometry" />
        </mxCell>
        <mxCell id="XHt_fw5lU9NrUzmbYUiy-12" value="0x41b8b4" style="text;html=1;align=center;verticalAlign=middle;resizable=0;points=[];autosize=1;strokeColor=none;fillColor=none;" parent="XHt_fw5lU9NrUzmbYUiy-1" vertex="1">
          <mxGeometry x="285" y="280" width="70" height="20" as="geometry" />
        </mxCell>
        <mxCell id="XHt_fw5lU9NrUzmbYUiy-13" value="0x41b8b5" style="text;html=1;align=center;verticalAlign=middle;resizable=0;points=[];autosize=1;strokeColor=none;fillColor=none;" parent="XHt_fw5lU9NrUzmbYUiy-1" vertex="1">
          <mxGeometry x="285" y="300" width="70" height="20" as="geometry" />
        </mxCell>
        <mxCell id="XHt_fw5lU9NrUzmbYUiy-14" value="0x41b8ba" style="text;html=1;align=center;verticalAlign=middle;resizable=0;points=[];autosize=1;strokeColor=none;fillColor=none;" parent="XHt_fw5lU9NrUzmbYUiy-1" vertex="1">
          <mxGeometry x="285" y="320" width="70" height="20" as="geometry" />
        </mxCell>
        <mxCell id="XHt_fw5lU9NrUzmbYUiy-17" value="&lt;span&gt;basick block a&lt;/span&gt;" style="rounded=0;whiteSpace=wrap;html=1;fillColor=#FFFF00;" parent="XHt_fw5lU9NrUzmbYUiy-1" vertex="1">
          <mxGeometry x="680" y="170" width="120" height="160" as="geometry" />
        </mxCell>
        <mxCell id="XHt_fw5lU9NrUzmbYUiy-18" value="lock cmpxchg" style="rounded=0;whiteSpace=wrap;html=1;fillColor=#FFFF00;" parent="XHt_fw5lU9NrUzmbYUiy-1" vertex="1">
          <mxGeometry x="680" y="270" width="120" height="30" as="geometry" />
        </mxCell>
        <mxCell id="XHt_fw5lU9NrUzmbYUiy-23" style="edgeStyle=orthogonalEdgeStyle;rounded=0;orthogonalLoop=1;jettySize=auto;html=1;exitX=1;exitY=0.5;exitDx=0;exitDy=0;entryX=1;entryY=0.5;entryDx=0;entryDy=0;" parent="XHt_fw5lU9NrUzmbYUiy-1" source="XHt_fw5lU9NrUzmbYUiy-19" target="XHt_fw5lU9NrUzmbYUiy-22" edge="1">
          <mxGeometry relative="1" as="geometry">
            <Array as="points">
              <mxPoint x="860" y="315" />
              <mxPoint x="860" y="375" />
            </Array>
          </mxGeometry>
        </mxCell>
        <mxCell id="XHt_fw5lU9NrUzmbYUiy-19" value="jump to label 1" style="rounded=0;whiteSpace=wrap;html=1;fillColor=#FFFF00;" parent="XHt_fw5lU9NrUzmbYUiy-1" vertex="1">
          <mxGeometry x="680" y="300" width="120" height="30" as="geometry" />
        </mxCell>
        <mxCell id="XHt_fw5lU9NrUzmbYUiy-20" value="&lt;span&gt;basic block b&lt;/span&gt;" style="rounded=0;whiteSpace=wrap;html=1;fillColor=#00FF00;" parent="XHt_fw5lU9NrUzmbYUiy-1" vertex="1">
          <mxGeometry x="680" y="330" width="120" height="180" as="geometry" />
        </mxCell>
        <mxCell id="XHt_fw5lU9NrUzmbYUiy-21" value="cmpxchg" style="rounded=0;whiteSpace=wrap;html=1;fillColor=#00FF00;" parent="XHt_fw5lU9NrUzmbYUiy-1" vertex="1">
          <mxGeometry x="680" y="330" width="120" height="30" as="geometry" />
        </mxCell>
        <mxCell id="XHt_fw5lU9NrUzmbYUiy-22" value="......" style="rounded=0;whiteSpace=wrap;html=1;fillColor=#00FF00;" parent="XHt_fw5lU9NrUzmbYUiy-1" vertex="1">
          <mxGeometry x="680" y="360" width="120" height="30" as="geometry" />
        </mxCell>
        <mxCell id="XHt_fw5lU9NrUzmbYUiy-27" value="" style="endArrow=classic;html=1;rounded=0;" parent="XHt_fw5lU9NrUzmbYUiy-1" edge="1">
          <mxGeometry width="50" height="50" relative="1" as="geometry">
            <mxPoint x="480" y="320" as="sourcePoint" />
            <mxPoint x="580" y="320" as="targetPoint" />
          </mxGeometry>
        </mxCell>
        <mxCell id="XHt_fw5lU9NrUzmbYUiy-28" value="0x41b8b4" style="text;html=1;align=center;verticalAlign=middle;resizable=0;points=[];autosize=1;strokeColor=none;fillColor=none;" parent="XHt_fw5lU9NrUzmbYUiy-1" vertex="1">
          <mxGeometry x="610" y="260" width="70" height="20" as="geometry" />
        </mxCell>
        <mxCell id="XHt_fw5lU9NrUzmbYUiy-29" value="0x41b8b5" style="text;html=1;align=center;verticalAlign=middle;resizable=0;points=[];autosize=1;strokeColor=none;fillColor=none;" parent="XHt_fw5lU9NrUzmbYUiy-1" vertex="1">
          <mxGeometry x="610" y="280" width="70" height="20" as="geometry" />
        </mxCell>
        <mxCell id="XHt_fw5lU9NrUzmbYUiy-30" value="label 1" style="text;html=1;align=center;verticalAlign=middle;resizable=0;points=[];autosize=1;strokeColor=none;fillColor=none;" parent="XHt_fw5lU9NrUzmbYUiy-1" vertex="1">
          <mxGeometry x="620" y="350" width="50" height="20" as="geometry" />
        </mxCell>
        <mxCell id="XHt_fw5lU9NrUzmbYUiy-32" value="entrance b" style="text;html=1;align=center;verticalAlign=middle;resizable=0;points=[];autosize=1;strokeColor=none;fillColor=none;" parent="XHt_fw5lU9NrUzmbYUiy-1" vertex="1">
          <mxGeometry x="610" y="320" width="70" height="20" as="geometry" />
        </mxCell>
        <mxCell id="XHt_fw5lU9NrUzmbYUiy-33" value="entrance a" style="text;html=1;align=center;verticalAlign=middle;resizable=0;points=[];autosize=1;strokeColor=none;fillColor=none;" parent="XHt_fw5lU9NrUzmbYUiy-1" vertex="1">
          <mxGeometry x="610" y="160" width="70" height="20" as="geometry" />
        </mxCell>
        <mxCell id="XHt_fw5lU9NrUzmbYUiy-34" value="&lt;span style=&quot;text-align: center&quot;&gt;&amp;nbsp; entrance a&lt;/span&gt;" style="text;whiteSpace=wrap;html=1;" parent="XHt_fw5lU9NrUzmbYUiy-1" vertex="1">
          <mxGeometry x="220" y="190" width="80" height="30" as="geometry" />
        </mxCell>
        <mxCell id="XHt_fw5lU9NrUzmbYUiy-35" value="entrance b" style="text;html=1;align=center;verticalAlign=middle;resizable=0;points=[];autosize=1;strokeColor=none;fillColor=none;" parent="XHt_fw5lU9NrUzmbYUiy-1" vertex="1">
          <mxGeometry x="220" y="300" width="70" height="20" as="geometry" />
        </mxCell>
      </root>
    </mxGraphModel>
  </diagram>
  <diagram id="rPf2ZBV89eU-bFPnzOgb" name="第 18 页">
    <mxGraphModel dx="1802" dy="787" grid="1" gridSize="10" guides="1" tooltips="1" connect="1" arrows="1" fold="1" page="1" pageScale="1" pageWidth="827" pageHeight="1169" math="0" shadow="0">
      <root>
        <mxCell id="0" />
        <mxCell id="1" parent="0" />
        <mxCell id="Skkechzg5N6YAASC9uWr-7" value="Guest程序" style="rounded=0;whiteSpace=wrap;html=1;fontSize=18;fillColor=none;" vertex="1" parent="1">
          <mxGeometry x="210" y="290" width="120" height="60" as="geometry" />
        </mxCell>
        <mxCell id="Skkechzg5N6YAASC9uWr-9" style="edgeStyle=orthogonalEdgeStyle;rounded=0;orthogonalLoop=1;jettySize=auto;html=1;entryX=0.5;entryY=0;entryDx=0;entryDy=0;fontSize=18;" edge="1" parent="1">
          <mxGeometry relative="1" as="geometry">
            <mxPoint x="410" y="400" as="sourcePoint" />
            <mxPoint x="410" y="400" as="targetPoint" />
          </mxGeometry>
        </mxCell>
        <mxCell id="Skkechzg5N6YAASC9uWr-10" value="二进制翻译器" style="rounded=0;whiteSpace=wrap;html=1;fontSize=18;fillColor=none;" vertex="1" parent="1">
          <mxGeometry x="210" y="350" width="120" height="30" as="geometry" />
        </mxCell>
        <mxCell id="Skkechzg5N6YAASC9uWr-11" value="Guest程序" style="rounded=0;whiteSpace=wrap;html=1;fontSize=18;fillColor=none;" vertex="1" parent="1">
          <mxGeometry x="330" y="290" width="120" height="60" as="geometry" />
        </mxCell>
        <mxCell id="Skkechzg5N6YAASC9uWr-12" value="二进制翻译器" style="rounded=0;whiteSpace=wrap;html=1;fontSize=18;fillColor=none;" vertex="1" parent="1">
          <mxGeometry x="330" y="350" width="120" height="30" as="geometry" />
        </mxCell>
        <mxCell id="Skkechzg5N6YAASC9uWr-13" value="Native程序" style="rounded=0;whiteSpace=wrap;html=1;fontSize=18;fillColor=none;" vertex="1" parent="1">
          <mxGeometry x="480" y="320" width="120" height="60" as="geometry" />
        </mxCell>
        <mxCell id="Skkechzg5N6YAASC9uWr-15" value="Host操作系统" style="rounded=0;whiteSpace=wrap;html=1;fontSize=18;fillColor=none;" vertex="1" parent="1">
          <mxGeometry x="210" y="380" width="390" height="40" as="geometry" />
        </mxCell>
      </root>
    </mxGraphModel>
  </diagram>
  <diagram id="FPQPSTRqMIRgd6NXEG10" name="系统级二进制翻译">
    <mxGraphModel dx="1802" dy="787" grid="1" gridSize="10" guides="1" tooltips="1" connect="1" arrows="1" fold="1" page="1" pageScale="1" pageWidth="827" pageHeight="1169" math="0" shadow="0">
      <root>
        <mxCell id="0" />
        <mxCell id="1" parent="0" />
        <mxCell id="uec1QJA9B6N85HWRUliY-1" value="" style="rounded=0;whiteSpace=wrap;html=1;fillColor=#FFFFFF;" parent="1" vertex="1">
          <mxGeometry x="360" y="440" width="450" height="80" as="geometry" />
        </mxCell>
        <mxCell id="uec1QJA9B6N85HWRUliY-2" value="&lt;font style=&quot;font-size: 18px;&quot;&gt;Guest进程&lt;/font&gt;" style="rounded=0;whiteSpace=wrap;html=1;fillColor=none;" parent="1" vertex="1">
          <mxGeometry x="390" y="462.5" width="110" height="35" as="geometry" />
        </mxCell>
        <mxCell id="uec1QJA9B6N85HWRUliY-3" value="&lt;font style=&quot;font-size: 18px;&quot;&gt;Guest进程&lt;/font&gt;" style="rounded=0;whiteSpace=wrap;html=1;fillColor=none;" parent="1" vertex="1">
          <mxGeometry x="530" y="462.5" width="110" height="35" as="geometry" />
        </mxCell>
        <mxCell id="uec1QJA9B6N85HWRUliY-4" value="&lt;font style=&quot;font-size: 18px;&quot;&gt;Guest进程&lt;/font&gt;" style="rounded=0;whiteSpace=wrap;html=1;fillColor=none;" parent="1" vertex="1">
          <mxGeometry x="670" y="462.5" width="110" height="35" as="geometry" />
        </mxCell>
        <mxCell id="uec1QJA9B6N85HWRUliY-5" value="二进制翻译器" style="rounded=0;whiteSpace=wrap;html=1;fontSize=18;fillColor=none;" parent="1" vertex="1">
          <mxGeometry x="360" y="560" width="450" height="40" as="geometry" />
        </mxCell>
        <mxCell id="uec1QJA9B6N85HWRUliY-7" value="Guest操作系统" style="rounded=0;whiteSpace=wrap;html=1;fontSize=18;fillColor=none;" parent="1" vertex="1">
          <mxGeometry x="360" y="520" width="450" height="40" as="geometry" />
        </mxCell>
      </root>
    </mxGraphModel>
  </diagram>
  <diagram id="bXhQmlZnVYDCsA4IHljb" name="基本块的查找与翻译">
    <mxGraphModel dx="1802" dy="787" grid="1" gridSize="10" guides="1" tooltips="1" connect="1" arrows="1" fold="1" page="1" pageScale="1" pageWidth="827" pageHeight="1169" math="0" shadow="0">
      <root>
        <mxCell id="0" />
        <mxCell id="1" parent="0" />
        <mxCell id="hv05fftgQOGX7OFsvV3K-14" style="edgeStyle=orthogonalEdgeStyle;rounded=0;orthogonalLoop=1;jettySize=auto;html=1;exitX=0;exitY=0.5;exitDx=0;exitDy=0;entryX=0;entryY=0.5;entryDx=0;entryDy=0;fontSize=18;" parent="1" source="hv05fftgQOGX7OFsvV3K-1" target="hv05fftgQOGX7OFsvV3K-3" edge="1">
          <mxGeometry relative="1" as="geometry" />
        </mxCell>
        <mxCell id="hv05fftgQOGX7OFsvV3K-1" value="代码翻译" style="rounded=1;whiteSpace=wrap;html=1;fontSize=18;fillColor=none;" parent="1" vertex="1">
          <mxGeometry x="350" y="240" width="210" height="50" as="geometry" />
        </mxCell>
        <mxCell id="hv05fftgQOGX7OFsvV3K-2" value="代码查询" style="rounded=1;whiteSpace=wrap;html=1;fontSize=18;fillColor=none;" parent="1" vertex="1">
          <mxGeometry x="350" y="370" width="210" height="50" as="geometry" />
        </mxCell>
        <mxCell id="hv05fftgQOGX7OFsvV3K-15" style="edgeStyle=orthogonalEdgeStyle;rounded=0;orthogonalLoop=1;jettySize=auto;html=1;exitX=1;exitY=0.5;exitDx=0;exitDy=0;entryX=1.002;entryY=0.441;entryDx=0;entryDy=0;entryPerimeter=0;fontSize=18;" parent="1" source="hv05fftgQOGX7OFsvV3K-3" target="hv05fftgQOGX7OFsvV3K-2" edge="1">
          <mxGeometry relative="1" as="geometry" />
        </mxCell>
        <mxCell id="hv05fftgQOGX7OFsvV3K-3" value="代码执行" style="rounded=1;whiteSpace=wrap;html=1;fontSize=18;fillColor=none;" parent="1" vertex="1">
          <mxGeometry x="350" y="500" width="210" height="50" as="geometry" />
        </mxCell>
        <mxCell id="hv05fftgQOGX7OFsvV3K-8" value="" style="endArrow=classic;html=1;rounded=0;fontSize=18;exitX=0.5;exitY=0;exitDx=0;exitDy=0;entryX=0.5;entryY=1;entryDx=0;entryDy=0;" parent="1" source="hv05fftgQOGX7OFsvV3K-2" target="hv05fftgQOGX7OFsvV3K-1" edge="1">
          <mxGeometry relative="1" as="geometry">
            <mxPoint x="360" y="570" as="sourcePoint" />
            <mxPoint x="460" y="290" as="targetPoint" />
            <Array as="points" />
          </mxGeometry>
        </mxCell>
        <mxCell id="hv05fftgQOGX7OFsvV3K-9" value="未命中" style="edgeLabel;resizable=0;html=1;align=center;verticalAlign=middle;fontSize=18;fillColor=#EA6B66;" parent="hv05fftgQOGX7OFsvV3K-8" connectable="0" vertex="1">
          <mxGeometry relative="1" as="geometry">
            <mxPoint as="offset" />
          </mxGeometry>
        </mxCell>
        <mxCell id="hv05fftgQOGX7OFsvV3K-10" value="" style="endArrow=classic;html=1;rounded=0;fontSize=18;exitX=0.5;exitY=1;exitDx=0;exitDy=0;" parent="1" source="hv05fftgQOGX7OFsvV3K-2" target="hv05fftgQOGX7OFsvV3K-3" edge="1">
          <mxGeometry relative="1" as="geometry">
            <mxPoint x="670" y="290" as="sourcePoint" />
            <mxPoint x="770" y="290" as="targetPoint" />
          </mxGeometry>
        </mxCell>
        <mxCell id="hv05fftgQOGX7OFsvV3K-11" value="命中" style="edgeLabel;resizable=0;html=1;align=center;verticalAlign=middle;fontSize=18;fillColor=#FFF2CC;" parent="hv05fftgQOGX7OFsvV3K-10" connectable="0" vertex="1">
          <mxGeometry relative="1" as="geometry" />
        </mxCell>
      </root>
    </mxGraphModel>
  </diagram>
  <diagram id="bUCLQo-SYXSURj6kJ8Ju" name="二进制翻译步骤">
    <mxGraphModel dx="1802" dy="787" grid="1" gridSize="10" guides="1" tooltips="1" connect="1" arrows="1" fold="1" page="1" pageScale="1" pageWidth="827" pageHeight="1169" math="0" shadow="0">
      <root>
        <mxCell id="0" />
        <mxCell id="1" parent="0" />
        <mxCell id="0SHAYCwNp3zG7lihTzHH-1" value="前端解码器" style="rounded=0;whiteSpace=wrap;html=1;fontSize=18;fillColor=#FFFFFF;" parent="1" vertex="1">
          <mxGeometry x="280" y="360" width="120" height="60" as="geometry" />
        </mxCell>
        <mxCell id="0SHAYCwNp3zG7lihTzHH-4" value="" style="edgeStyle=orthogonalEdgeStyle;rounded=0;orthogonalLoop=1;jettySize=auto;html=1;fontSize=18;" parent="1" source="0SHAYCwNp3zG7lihTzHH-2" target="0SHAYCwNp3zG7lihTzHH-1" edge="1">
          <mxGeometry relative="1" as="geometry" />
        </mxCell>
        <mxCell id="0SHAYCwNp3zG7lihTzHH-2" value="非本机架构二进制程序" style="text;html=1;align=center;verticalAlign=middle;resizable=0;points=[];autosize=1;strokeColor=none;fillColor=none;fontSize=18;" parent="1" vertex="1">
          <mxGeometry x="240" y="480" width="200" height="40" as="geometry" />
        </mxCell>
        <mxCell id="0SHAYCwNp3zG7lihTzHH-5" value="分析优化器" style="rounded=0;whiteSpace=wrap;html=1;fontSize=18;fillColor=#FFFFFF;" parent="1" vertex="1">
          <mxGeometry x="440" y="240" width="120" height="60" as="geometry" />
        </mxCell>
        <mxCell id="0SHAYCwNp3zG7lihTzHH-10" style="edgeStyle=orthogonalEdgeStyle;rounded=0;orthogonalLoop=1;jettySize=auto;html=1;exitX=0.5;exitY=1;exitDx=0;exitDy=0;entryX=0.498;entryY=-0.062;entryDx=0;entryDy=0;entryPerimeter=0;fontSize=18;" parent="1" source="0SHAYCwNp3zG7lihTzHH-6" target="0SHAYCwNp3zG7lihTzHH-9" edge="1">
          <mxGeometry relative="1" as="geometry" />
        </mxCell>
        <mxCell id="0SHAYCwNp3zG7lihTzHH-6" value="代码生成器" style="rounded=0;whiteSpace=wrap;html=1;fontSize=18;fillColor=#FFFFFF;" parent="1" vertex="1">
          <mxGeometry x="600" y="360" width="120" height="60" as="geometry" />
        </mxCell>
        <mxCell id="0SHAYCwNp3zG7lihTzHH-9" value="本机可执行的二进制代码" style="text;html=1;align=center;verticalAlign=middle;resizable=0;points=[];autosize=1;strokeColor=none;fillColor=none;fontSize=18;" parent="1" vertex="1">
          <mxGeometry x="550" y="480" width="220" height="40" as="geometry" />
        </mxCell>
        <mxCell id="0SHAYCwNp3zG7lihTzHH-12" value="" style="endArrow=classic;html=1;rounded=0;fontSize=18;exitX=0.5;exitY=0;exitDx=0;exitDy=0;entryX=0;entryY=0.5;entryDx=0;entryDy=0;" parent="1" source="0SHAYCwNp3zG7lihTzHH-1" target="0SHAYCwNp3zG7lihTzHH-5" edge="1">
          <mxGeometry relative="1" as="geometry">
            <mxPoint x="400" y="570" as="sourcePoint" />
            <mxPoint x="500" y="570" as="targetPoint" />
            <Array as="points">
              <mxPoint x="340" y="270" />
            </Array>
          </mxGeometry>
        </mxCell>
        <mxCell id="0SHAYCwNp3zG7lihTzHH-13" value="第一级中间代码" style="edgeLabel;resizable=0;html=1;align=center;verticalAlign=middle;fontSize=18;fillColor=#FFFFFF;" parent="0SHAYCwNp3zG7lihTzHH-12" connectable="0" vertex="1">
          <mxGeometry relative="1" as="geometry" />
        </mxCell>
        <mxCell id="0SHAYCwNp3zG7lihTzHH-14" value="" style="endArrow=classic;html=1;rounded=0;fontSize=18;exitX=1;exitY=0.5;exitDx=0;exitDy=0;entryX=0.5;entryY=0;entryDx=0;entryDy=0;" parent="1" source="0SHAYCwNp3zG7lihTzHH-5" target="0SHAYCwNp3zG7lihTzHH-6" edge="1">
          <mxGeometry relative="1" as="geometry">
            <mxPoint x="400" y="570" as="sourcePoint" />
            <mxPoint x="500" y="570" as="targetPoint" />
            <Array as="points">
              <mxPoint x="660" y="270" />
            </Array>
          </mxGeometry>
        </mxCell>
        <mxCell id="0SHAYCwNp3zG7lihTzHH-15" value="第二级中间代码" style="edgeLabel;resizable=0;html=1;align=center;verticalAlign=middle;fontSize=18;fillColor=#FFFFFF;" parent="0SHAYCwNp3zG7lihTzHH-14" connectable="0" vertex="1">
          <mxGeometry relative="1" as="geometry" />
        </mxCell>
      </root>
    </mxGraphModel>
  </diagram>
  <diagram id="AQxSYF4a8ttkwIK6Mrur" name="静态二进制翻译流程">
    <mxGraphModel dx="1802" dy="787" grid="1" gridSize="10" guides="1" tooltips="1" connect="1" arrows="1" fold="1" page="1" pageScale="1" pageWidth="827" pageHeight="1169" math="0" shadow="0">
      <root>
        <mxCell id="0" />
        <mxCell id="1" parent="0" />
        <mxCell id="IMM8Pmp_4UXu89CfyOoD-1" value="Guest二进制程序" style="rounded=1;whiteSpace=wrap;html=1;fontSize=18;fillColor=#FFFFFF;" parent="1" vertex="1">
          <mxGeometry x="70" y="320" width="150" height="60" as="geometry" />
        </mxCell>
        <mxCell id="IMM8Pmp_4UXu89CfyOoD-6" value="" style="edgeStyle=orthogonalEdgeStyle;rounded=0;orthogonalLoop=1;jettySize=auto;html=1;fontSize=18;" parent="1" source="IMM8Pmp_4UXu89CfyOoD-2" edge="1">
          <mxGeometry relative="1" as="geometry">
            <mxPoint x="445" y="500" as="targetPoint" />
          </mxGeometry>
        </mxCell>
        <mxCell id="IMM8Pmp_4UXu89CfyOoD-2" value="Host二进制程序" style="rounded=1;whiteSpace=wrap;html=1;fontSize=18;fillColor=#FFFFFF;" parent="1" vertex="1">
          <mxGeometry x="370" y="320" width="150" height="60" as="geometry" />
        </mxCell>
        <mxCell id="IMM8Pmp_4UXu89CfyOoD-3" value="" style="endArrow=classic;html=1;rounded=0;fontSize=18;exitX=1;exitY=0.5;exitDx=0;exitDy=0;" parent="1" source="IMM8Pmp_4UXu89CfyOoD-1" target="IMM8Pmp_4UXu89CfyOoD-2" edge="1">
          <mxGeometry relative="1" as="geometry">
            <mxPoint x="360" y="530" as="sourcePoint" />
            <mxPoint x="460" y="530" as="targetPoint" />
          </mxGeometry>
        </mxCell>
        <mxCell id="IMM8Pmp_4UXu89CfyOoD-4" value="离线翻译" style="edgeLabel;resizable=0;html=1;align=center;verticalAlign=middle;fontSize=18;fillColor=#FFFFFF;" parent="IMM8Pmp_4UXu89CfyOoD-3" connectable="0" vertex="1">
          <mxGeometry relative="1" as="geometry" />
        </mxCell>
        <mxCell id="IMM8Pmp_4UXu89CfyOoD-8" value="" style="edgeStyle=orthogonalEdgeStyle;rounded=0;orthogonalLoop=1;jettySize=auto;html=1;fontSize=18;exitX=1;exitY=0.5;exitDx=0;exitDy=0;" parent="1" source="IMM8Pmp_4UXu89CfyOoD-12" edge="1">
          <mxGeometry relative="1" as="geometry">
            <mxPoint x="520" y="530" as="sourcePoint" />
            <mxPoint x="580" y="530" as="targetPoint" />
            <Array as="points" />
          </mxGeometry>
        </mxCell>
        <mxCell id="IMM8Pmp_4UXu89CfyOoD-9" value="" style="endArrow=none;dashed=1;html=1;dashPattern=1 3;strokeWidth=2;rounded=0;fontSize=18;" parent="1" edge="1">
          <mxGeometry width="50" height="50" relative="1" as="geometry">
            <mxPoint x="40" y="440" as="sourcePoint" />
            <mxPoint x="760" y="440" as="targetPoint" />
          </mxGeometry>
        </mxCell>
        <mxCell id="IMM8Pmp_4UXu89CfyOoD-10" value="程序运行前" style="text;html=1;align=center;verticalAlign=middle;resizable=0;points=[];autosize=1;strokeColor=none;fillColor=none;fontSize=18;" parent="1" vertex="1">
          <mxGeometry x="645" y="400" width="110" height="40" as="geometry" />
        </mxCell>
        <mxCell id="IMM8Pmp_4UXu89CfyOoD-11" value="程序运行时" style="text;html=1;align=center;verticalAlign=middle;resizable=0;points=[];autosize=1;strokeColor=none;fillColor=none;fontSize=18;" parent="1" vertex="1">
          <mxGeometry x="645" y="440" width="110" height="40" as="geometry" />
        </mxCell>
        <mxCell id="IMM8Pmp_4UXu89CfyOoD-12" value="解释器" style="rounded=0;whiteSpace=wrap;html=1;fontSize=18;fillColor=#FFFFFF;" parent="1" vertex="1">
          <mxGeometry x="385" y="500" width="120" height="60" as="geometry" />
        </mxCell>
        <mxCell id="IMM8Pmp_4UXu89CfyOoD-14" value="CPU" style="rounded=0;whiteSpace=wrap;html=1;fontSize=18;fillColor=#FFFFFF;" parent="1" vertex="1">
          <mxGeometry x="580" y="500" width="120" height="60" as="geometry" />
        </mxCell>
      </root>
    </mxGraphModel>
  </diagram>
  <diagram id="Rqy6uC5qHq-bsTqoWn3l" name="第 12 页">
    <mxGraphModel dx="2120" dy="926" grid="1" gridSize="10" guides="1" tooltips="1" connect="1" arrows="1" fold="1" page="1" pageScale="1" pageWidth="827" pageHeight="1169" math="0" shadow="0">
      <root>
        <mxCell id="0" />
        <mxCell id="1" parent="0" />
        <mxCell id="EgOEjTCQl1FstHTXELqA-1" value="" style="edgeStyle=orthogonalEdgeStyle;rounded=0;orthogonalLoop=1;jettySize=auto;html=1;fontSize=18;" parent="1" source="EgOEjTCQl1FstHTXELqA-2" target="EgOEjTCQl1FstHTXELqA-4" edge="1">
          <mxGeometry relative="1" as="geometry" />
        </mxCell>
        <mxCell id="EgOEjTCQl1FstHTXELqA-2" value="反汇编" style="rounded=0;whiteSpace=wrap;html=1;fontSize=18;fillColor=none;" parent="1" vertex="1">
          <mxGeometry x="580" y="365" width="120" height="60" as="geometry" />
        </mxCell>
        <mxCell id="EgOEjTCQl1FstHTXELqA-3" value="" style="edgeStyle=orthogonalEdgeStyle;rounded=0;orthogonalLoop=1;jettySize=auto;html=1;fontSize=18;" parent="1" source="EgOEjTCQl1FstHTXELqA-4" target="EgOEjTCQl1FstHTXELqA-6" edge="1">
          <mxGeometry relative="1" as="geometry" />
        </mxCell>
        <mxCell id="EgOEjTCQl1FstHTXELqA-4" value="翻译和优化" style="rounded=0;whiteSpace=wrap;html=1;fontSize=18;fillColor=none;" parent="1" vertex="1">
          <mxGeometry x="580" y="445" width="120" height="60" as="geometry" />
        </mxCell>
        <mxCell id="MvjaHPcO-zr9pvzhZFcs-2" style="edgeStyle=orthogonalEdgeStyle;rounded=0;orthogonalLoop=1;jettySize=auto;html=1;exitX=0.5;exitY=1;exitDx=0;exitDy=0;fontSize=18;" edge="1" parent="1" source="EgOEjTCQl1FstHTXELqA-6">
          <mxGeometry relative="1" as="geometry">
            <mxPoint x="640" y="615" as="targetPoint" />
          </mxGeometry>
        </mxCell>
        <mxCell id="EgOEjTCQl1FstHTXELqA-6" value="汇编" style="rounded=0;whiteSpace=wrap;html=1;fontSize=18;fillColor=none;" parent="1" vertex="1">
          <mxGeometry x="580" y="525" width="120" height="60" as="geometry" />
        </mxCell>
        <mxCell id="EgOEjTCQl1FstHTXELqA-7" value="" style="whiteSpace=wrap;html=1;aspect=fixed;fontSize=18;fillColor=none;" parent="1" vertex="1">
          <mxGeometry x="500" y="320" width="275" height="275" as="geometry" />
        </mxCell>
        <mxCell id="EgOEjTCQl1FstHTXELqA-8" style="edgeStyle=orthogonalEdgeStyle;rounded=0;orthogonalLoop=1;jettySize=auto;html=1;exitX=0.5;exitY=1;exitDx=0;exitDy=0;fontSize=18;" parent="1" edge="1">
          <mxGeometry relative="1" as="geometry">
            <mxPoint x="310" y="260" as="targetPoint" />
            <mxPoint x="310" y="210" as="sourcePoint" />
          </mxGeometry>
        </mxCell>
        <mxCell id="EgOEjTCQl1FstHTXELqA-11" value="翻译当前代码" style="text;html=1;align=center;verticalAlign=middle;resizable=0;points=[];autosize=1;strokeColor=none;fillColor=none;fontSize=18;" parent="1" vertex="1">
          <mxGeometry x="515" y="325" width="130" height="40" as="geometry" />
        </mxCell>
        <mxCell id="EgOEjTCQl1FstHTXELqA-12" style="edgeStyle=orthogonalEdgeStyle;rounded=0;orthogonalLoop=1;jettySize=auto;html=1;exitX=0.5;exitY=1;exitDx=0;exitDy=0;entryX=0.5;entryY=0;entryDx=0;entryDy=0;fontSize=18;" parent="1" source="EgOEjTCQl1FstHTXELqA-14" edge="1" target="EgOEjTCQl1FstHTXELqA-19">
          <mxGeometry relative="1" as="geometry">
            <mxPoint x="310" y="695" as="targetPoint" />
          </mxGeometry>
        </mxCell>
        <mxCell id="EgOEjTCQl1FstHTXELqA-13" style="edgeStyle=orthogonalEdgeStyle;rounded=0;orthogonalLoop=1;jettySize=auto;html=1;exitX=1;exitY=0.5;exitDx=0;exitDy=0;entryX=0.5;entryY=0;entryDx=0;entryDy=0;fontSize=18;" parent="1" source="EgOEjTCQl1FstHTXELqA-14" target="EgOEjTCQl1FstHTXELqA-2" edge="1">
          <mxGeometry relative="1" as="geometry" />
        </mxCell>
        <mxCell id="EgOEjTCQl1FstHTXELqA-14" value="该代码是否翻译过" style="rhombus;whiteSpace=wrap;html=1;fontSize=18;fillColor=none;" parent="1" vertex="1">
          <mxGeometry x="220" y="260" width="180" height="80" as="geometry" />
        </mxCell>
        <mxCell id="EgOEjTCQl1FstHTXELqA-15" value="是" style="text;html=1;align=center;verticalAlign=middle;resizable=0;points=[];autosize=1;strokeColor=none;fillColor=none;fontSize=18;" parent="1" vertex="1">
          <mxGeometry x="270" y="470" width="30" height="30" as="geometry" />
        </mxCell>
        <mxCell id="EgOEjTCQl1FstHTXELqA-16" value="否" style="text;html=1;align=center;verticalAlign=middle;resizable=0;points=[];autosize=1;strokeColor=none;fillColor=none;fontSize=18;" parent="1" vertex="1">
          <mxGeometry x="515" y="270" width="30" height="30" as="geometry" />
        </mxCell>
        <mxCell id="EgOEjTCQl1FstHTXELqA-17" value="需要执行的代码的地址" style="rounded=1;whiteSpace=wrap;html=1;fontSize=18;fillColor=#FFFFFF;" parent="1" vertex="1">
          <mxGeometry x="250" y="170" width="120" height="60" as="geometry" />
        </mxCell>
        <mxCell id="MvjaHPcO-zr9pvzhZFcs-6" style="edgeStyle=orthogonalEdgeStyle;rounded=0;orthogonalLoop=1;jettySize=auto;html=1;exitX=0.5;exitY=1;exitDx=0;exitDy=0;entryX=0.5;entryY=0;entryDx=0;entryDy=0;fontSize=18;" edge="1" parent="1" source="EgOEjTCQl1FstHTXELqA-19" target="MvjaHPcO-zr9pvzhZFcs-5">
          <mxGeometry relative="1" as="geometry" />
        </mxCell>
        <mxCell id="EgOEjTCQl1FstHTXELqA-19" value="执行翻译后的代码" style="rounded=0;whiteSpace=wrap;html=1;fontSize=18;fillColor=#FFFFFF;" parent="1" vertex="1">
          <mxGeometry x="235" y="720" width="150" height="60" as="geometry" />
        </mxCell>
        <mxCell id="EgOEjTCQl1FstHTXELqA-20" style="edgeStyle=orthogonalEdgeStyle;rounded=0;orthogonalLoop=1;jettySize=auto;html=1;exitX=0.5;exitY=1;exitDx=0;exitDy=0;fontSize=18;" parent="1" source="EgOEjTCQl1FstHTXELqA-19" target="EgOEjTCQl1FstHTXELqA-19" edge="1">
          <mxGeometry relative="1" as="geometry" />
        </mxCell>
        <mxCell id="MvjaHPcO-zr9pvzhZFcs-4" style="edgeStyle=orthogonalEdgeStyle;rounded=0;orthogonalLoop=1;jettySize=auto;html=1;exitX=0.5;exitY=1;exitDx=0;exitDy=0;entryX=0.5;entryY=0;entryDx=0;entryDy=0;fontSize=18;" edge="1" parent="1" source="MvjaHPcO-zr9pvzhZFcs-1" target="EgOEjTCQl1FstHTXELqA-19">
          <mxGeometry relative="1" as="geometry" />
        </mxCell>
        <mxCell id="MvjaHPcO-zr9pvzhZFcs-1" value="&lt;font style=&quot;font-size: 18px;&quot;&gt;保存翻译后的代码&lt;/font&gt;" style="rounded=0;whiteSpace=wrap;html=1;fillColor=none;" vertex="1" parent="1">
          <mxGeometry x="580" y="615" width="120" height="60" as="geometry" />
        </mxCell>
        <mxCell id="MvjaHPcO-zr9pvzhZFcs-5" value="接下来要执行的代码的地址" style="rounded=1;whiteSpace=wrap;html=1;fontSize=18;fillColor=#FFFFFF;" vertex="1" parent="1">
          <mxGeometry x="250" y="810" width="120" height="60" as="geometry" />
        </mxCell>
      </root>
    </mxGraphModel>
  </diagram>
  <diagram id="DmbtOCJN9qSgWgaEUCLg" name="第 13 页">
    <mxGraphModel dx="1802" dy="787" grid="1" gridSize="10" guides="1" tooltips="1" connect="1" arrows="1" fold="1" page="1" pageScale="1" pageWidth="827" pageHeight="1169" math="0" shadow="0">
      <root>
        <mxCell id="0" />
        <mxCell id="1" parent="0" />
        <mxCell id="fw4ssYRnAJ2ZvKvPhUbV-4" style="edgeStyle=orthogonalEdgeStyle;rounded=0;orthogonalLoop=1;jettySize=auto;html=1;exitX=1;exitY=0.5;exitDx=0;exitDy=0;entryX=0;entryY=0.5;entryDx=0;entryDy=0;fontSize=18;" parent="1" source="fw4ssYRnAJ2ZvKvPhUbV-1" target="fw4ssYRnAJ2ZvKvPhUbV-2" edge="1">
          <mxGeometry relative="1" as="geometry" />
        </mxCell>
        <mxCell id="fw4ssYRnAJ2ZvKvPhUbV-1" value="当前执行的指令" style="rounded=1;whiteSpace=wrap;html=1;fontSize=18;fillColor=#FFFFFF;" parent="1" vertex="1">
          <mxGeometry x="10" y="250" width="130" height="60" as="geometry" />
        </mxCell>
        <mxCell id="fw4ssYRnAJ2ZvKvPhUbV-5" style="edgeStyle=orthogonalEdgeStyle;rounded=0;orthogonalLoop=1;jettySize=auto;html=1;exitX=1;exitY=0.5;exitDx=0;exitDy=0;entryX=0;entryY=0.5;entryDx=0;entryDy=0;fontSize=18;" parent="1" source="fw4ssYRnAJ2ZvKvPhUbV-2" target="fw4ssYRnAJ2ZvKvPhUbV-3" edge="1">
          <mxGeometry relative="1" as="geometry" />
        </mxCell>
        <mxCell id="fw4ssYRnAJ2ZvKvPhUbV-2" value="解释" style="rounded=0;whiteSpace=wrap;html=1;fontSize=18;fillColor=#FFFFFF;" parent="1" vertex="1">
          <mxGeometry x="200" y="250" width="120" height="60" as="geometry" />
        </mxCell>
        <mxCell id="fw4ssYRnAJ2ZvKvPhUbV-3" value="执行" style="rounded=0;whiteSpace=wrap;html=1;fontSize=18;fillColor=#FFFFFF;" parent="1" vertex="1">
          <mxGeometry x="370" y="250" width="120" height="60" as="geometry" />
        </mxCell>
      </root>
    </mxGraphModel>
  </diagram>
  <diagram id="HI17GFo8L5E5rNS8TLsS" name="第 14 页">
    <mxGraphModel dx="1802" dy="787" grid="1" gridSize="10" guides="1" tooltips="1" connect="1" arrows="1" fold="1" page="1" pageScale="1" pageWidth="827" pageHeight="1169" math="0" shadow="0">
      <root>
        <mxCell id="0" />
        <mxCell id="1" parent="0" />
        <mxCell id="DKASBzYihUWhFQ_MFBSG-1" value="TB1" style="rounded=0;whiteSpace=wrap;html=1;fontSize=18;fillColor=#FFFFFF;" parent="1" vertex="1">
          <mxGeometry x="330" y="80" width="150" height="180" as="geometry" />
        </mxCell>
        <mxCell id="DKASBzYihUWhFQ_MFBSG-81" style="edgeStyle=orthogonalEdgeStyle;rounded=0;orthogonalLoop=1;jettySize=auto;html=1;exitX=1;exitY=0.5;exitDx=0;exitDy=0;entryX=1.006;entryY=0.56;entryDx=0;entryDy=0;entryPerimeter=0;fontSize=18;" parent="1" source="DKASBzYihUWhFQ_MFBSG-5" target="DKASBzYihUWhFQ_MFBSG-23" edge="1">
          <mxGeometry relative="1" as="geometry">
            <Array as="points">
              <mxPoint x="520" y="245" />
              <mxPoint x="520" y="581" />
            </Array>
          </mxGeometry>
        </mxCell>
        <mxCell id="DKASBzYihUWhFQ_MFBSG-5" value="go to TB3" style="rounded=0;whiteSpace=wrap;html=1;fontSize=18;fillColor=#FFFFFF;" parent="1" vertex="1">
          <mxGeometry x="330" y="230" width="150" height="30" as="geometry" />
        </mxCell>
        <mxCell id="DKASBzYihUWhFQ_MFBSG-13" value="label 1" style="text;html=1;align=center;verticalAlign=middle;resizable=0;points=[];autosize=1;strokeColor=none;fillColor=none;fontSize=18;" parent="1" vertex="1">
          <mxGeometry x="250" y="185" width="80" height="40" as="geometry" />
        </mxCell>
        <mxCell id="DKASBzYihUWhFQ_MFBSG-14" value="label 2" style="text;html=1;align=center;verticalAlign=middle;resizable=0;points=[];autosize=1;strokeColor=none;fillColor=none;fontSize=18;" parent="1" vertex="1">
          <mxGeometry x="250" y="225" width="80" height="40" as="geometry" />
        </mxCell>
        <mxCell id="DKASBzYihUWhFQ_MFBSG-80" style="edgeStyle=orthogonalEdgeStyle;rounded=0;orthogonalLoop=1;jettySize=auto;html=1;exitX=1;exitY=0.25;exitDx=0;exitDy=0;entryX=1;entryY=0.5;entryDx=0;entryDy=0;fontSize=18;" parent="1" source="DKASBzYihUWhFQ_MFBSG-17" target="DKASBzYihUWhFQ_MFBSG-18" edge="1">
          <mxGeometry relative="1" as="geometry" />
        </mxCell>
        <mxCell id="DKASBzYihUWhFQ_MFBSG-17" value="go to TB2" style="rounded=0;whiteSpace=wrap;html=1;fontSize=18;fillColor=#FFFFFF;" parent="1" vertex="1">
          <mxGeometry x="330" y="190" width="150" height="30" as="geometry" />
        </mxCell>
        <mxCell id="DKASBzYihUWhFQ_MFBSG-18" value="TB2" style="rounded=0;whiteSpace=wrap;html=1;fontSize=18;fillColor=#FFFFFF;" parent="1" vertex="1">
          <mxGeometry x="330" y="280" width="150" height="175" as="geometry" />
        </mxCell>
        <mxCell id="DKASBzYihUWhFQ_MFBSG-20" value="label 1" style="text;html=1;align=center;verticalAlign=middle;resizable=0;points=[];autosize=1;strokeColor=none;fillColor=none;fontSize=18;" parent="1" vertex="1">
          <mxGeometry x="250" y="400" width="80" height="40" as="geometry" />
        </mxCell>
        <mxCell id="DKASBzYihUWhFQ_MFBSG-82" style="edgeStyle=orthogonalEdgeStyle;rounded=0;orthogonalLoop=1;jettySize=auto;html=1;exitX=1;exitY=0.25;exitDx=0;exitDy=0;entryX=1;entryY=0.5;entryDx=0;entryDy=0;fontSize=18;" parent="1" source="DKASBzYihUWhFQ_MFBSG-22" target="DKASBzYihUWhFQ_MFBSG-1" edge="1">
          <mxGeometry relative="1" as="geometry">
            <Array as="points">
              <mxPoint x="540" y="413" />
              <mxPoint x="540" y="170" />
            </Array>
          </mxGeometry>
        </mxCell>
        <mxCell id="DKASBzYihUWhFQ_MFBSG-22" value="go to TB1" style="rounded=0;whiteSpace=wrap;html=1;fontSize=18;fillColor=#FFFFFF;" parent="1" vertex="1">
          <mxGeometry x="330" y="405" width="150" height="30" as="geometry" />
        </mxCell>
        <mxCell id="DKASBzYihUWhFQ_MFBSG-23" value="TB3" style="rounded=0;whiteSpace=wrap;html=1;fontSize=18;fillColor=#FFFFFF;" parent="1" vertex="1">
          <mxGeometry x="330" y="480" width="150" height="180" as="geometry" />
        </mxCell>
        <mxCell id="DKASBzYihUWhFQ_MFBSG-83" style="edgeStyle=orthogonalEdgeStyle;rounded=0;orthogonalLoop=1;jettySize=auto;html=1;exitX=1;exitY=0.5;exitDx=0;exitDy=0;entryX=1;entryY=0.5;entryDx=0;entryDy=0;fontSize=18;" parent="1" source="DKASBzYihUWhFQ_MFBSG-24" target="DKASBzYihUWhFQ_MFBSG-31" edge="1">
          <mxGeometry relative="1" as="geometry">
            <Array as="points">
              <mxPoint x="520" y="625" />
              <mxPoint x="520" y="770" />
            </Array>
          </mxGeometry>
        </mxCell>
        <mxCell id="DKASBzYihUWhFQ_MFBSG-24" value="go to&amp;nbsp;epilogue" style="rounded=0;whiteSpace=wrap;html=1;fontSize=18;fillColor=#FFFFFF;" parent="1" vertex="1">
          <mxGeometry x="330" y="610" width="150" height="30" as="geometry" />
        </mxCell>
        <mxCell id="DKASBzYihUWhFQ_MFBSG-25" value="label 1" style="text;html=1;align=center;verticalAlign=middle;resizable=0;points=[];autosize=1;strokeColor=none;fillColor=none;fontSize=18;" parent="1" vertex="1">
          <mxGeometry x="250" y="605" width="80" height="40" as="geometry" />
        </mxCell>
        <mxCell id="DKASBzYihUWhFQ_MFBSG-31" value="进行上下文切换&lt;br&gt;回到host态" style="rounded=0;whiteSpace=wrap;html=1;fontSize=18;fillColor=#FFFFFF;" parent="1" vertex="1">
          <mxGeometry x="330" y="680" width="150" height="180" as="geometry" />
        </mxCell>
        <mxCell id="DKASBzYihUWhFQ_MFBSG-32" value="&lt;span style=&quot;&quot;&gt;epilogue&lt;/span&gt;" style="text;html=1;align=center;verticalAlign=middle;resizable=0;points=[];autosize=1;strokeColor=none;fillColor=none;fontSize=18;" parent="1" vertex="1">
          <mxGeometry x="330" y="680" width="90" height="40" as="geometry" />
        </mxCell>
        <mxCell id="DKASBzYihUWhFQ_MFBSG-77" value="上次运行时的链接状态：" style="text;html=1;align=center;verticalAlign=middle;resizable=0;points=[];autosize=1;strokeColor=none;fillColor=none;fontSize=18;" parent="1" vertex="1">
          <mxGeometry x="120" y="30" width="220" height="40" as="geometry" />
        </mxCell>
        <mxCell id="DKASBzYihUWhFQ_MFBSG-78" value="再次加载时的链接状态：" style="text;html=1;align=center;verticalAlign=middle;resizable=0;points=[];autosize=1;strokeColor=none;fillColor=none;fontSize=18;" parent="1" vertex="1">
          <mxGeometry x="480" y="30" width="220" height="40" as="geometry" />
        </mxCell>
        <mxCell id="DKASBzYihUWhFQ_MFBSG-79" value="&lt;span style=&quot;color: rgb(0, 0, 0); font-family: Helvetica; font-size: 18px; font-style: normal; font-variant-ligatures: normal; font-variant-caps: normal; font-weight: 400; letter-spacing: normal; orphans: 2; text-align: center; text-indent: 0px; text-transform: none; widows: 2; word-spacing: 0px; -webkit-text-stroke-width: 0px; background-color: rgb(248, 249, 250); text-decoration-thickness: initial; text-decoration-style: initial; text-decoration-color: initial; float: none; display: inline !important;&quot;&gt;解链接后：&lt;/span&gt;" style="text;whiteSpace=wrap;html=1;fontSize=18;" parent="1" vertex="1">
          <mxGeometry x="940" y="35" width="210" height="45" as="geometry" />
        </mxCell>
        <mxCell id="DKASBzYihUWhFQ_MFBSG-85" value="TB1" style="rounded=0;whiteSpace=wrap;html=1;fontSize=18;fillColor=#FFFFFF;" parent="1" vertex="1">
          <mxGeometry x="680" y="80" width="150" height="180" as="geometry" />
        </mxCell>
        <mxCell id="DKASBzYihUWhFQ_MFBSG-86" style="edgeStyle=orthogonalEdgeStyle;rounded=0;orthogonalLoop=1;jettySize=auto;html=1;exitX=1;exitY=0.5;exitDx=0;exitDy=0;entryX=1.006;entryY=0.56;entryDx=0;entryDy=0;entryPerimeter=0;fontSize=18;" parent="1" source="DKASBzYihUWhFQ_MFBSG-87" target="DKASBzYihUWhFQ_MFBSG-96" edge="1">
          <mxGeometry relative="1" as="geometry">
            <Array as="points">
              <mxPoint x="870" y="245" />
              <mxPoint x="870" y="581" />
            </Array>
          </mxGeometry>
        </mxCell>
        <mxCell id="DKASBzYihUWhFQ_MFBSG-87" value="go to TB3" style="rounded=0;whiteSpace=wrap;html=1;fontSize=18;fillColor=#FFFFFF;" parent="1" vertex="1">
          <mxGeometry x="680" y="230" width="150" height="30" as="geometry" />
        </mxCell>
        <mxCell id="DKASBzYihUWhFQ_MFBSG-88" value="label 1" style="text;html=1;align=center;verticalAlign=middle;resizable=0;points=[];autosize=1;strokeColor=none;fillColor=none;fontSize=18;" parent="1" vertex="1">
          <mxGeometry x="600" y="185" width="80" height="40" as="geometry" />
        </mxCell>
        <mxCell id="DKASBzYihUWhFQ_MFBSG-89" value="label 2" style="text;html=1;align=center;verticalAlign=middle;resizable=0;points=[];autosize=1;strokeColor=none;fillColor=none;fontSize=18;" parent="1" vertex="1">
          <mxGeometry x="600" y="225" width="80" height="40" as="geometry" />
        </mxCell>
        <mxCell id="DKASBzYihUWhFQ_MFBSG-90" style="edgeStyle=orthogonalEdgeStyle;rounded=0;orthogonalLoop=1;jettySize=auto;html=1;exitX=1;exitY=0.25;exitDx=0;exitDy=0;entryX=1;entryY=0.5;entryDx=0;entryDy=0;fontSize=18;" parent="1" source="DKASBzYihUWhFQ_MFBSG-91" target="DKASBzYihUWhFQ_MFBSG-92" edge="1">
          <mxGeometry relative="1" as="geometry" />
        </mxCell>
        <mxCell id="DKASBzYihUWhFQ_MFBSG-91" value="go to TB2" style="rounded=0;whiteSpace=wrap;html=1;fontSize=18;fillColor=#FFFFFF;" parent="1" vertex="1">
          <mxGeometry x="680" y="190" width="150" height="30" as="geometry" />
        </mxCell>
        <mxCell id="DKASBzYihUWhFQ_MFBSG-92" value="？" style="rounded=0;whiteSpace=wrap;html=1;fontSize=18;fillColor=#FFFFFF;" parent="1" vertex="1">
          <mxGeometry x="680" y="280" width="150" height="175" as="geometry" />
        </mxCell>
        <mxCell id="DKASBzYihUWhFQ_MFBSG-96" value="？" style="rounded=0;whiteSpace=wrap;html=1;fontSize=18;fillColor=#FFFFFF;" parent="1" vertex="1">
          <mxGeometry x="680" y="480" width="150" height="180" as="geometry" />
        </mxCell>
        <mxCell id="DKASBzYihUWhFQ_MFBSG-100" value="？" style="rounded=0;whiteSpace=wrap;html=1;fontSize=18;fillColor=#FFFFFF;" parent="1" vertex="1">
          <mxGeometry x="680" y="680" width="150" height="180" as="geometry" />
        </mxCell>
        <mxCell id="DKASBzYihUWhFQ_MFBSG-119" value="TB1" style="rounded=0;whiteSpace=wrap;html=1;fontSize=18;fillColor=#FFFFFF;" parent="1" vertex="1">
          <mxGeometry x="1030" y="80" width="150" height="180" as="geometry" />
        </mxCell>
        <mxCell id="DKASBzYihUWhFQ_MFBSG-137" style="edgeStyle=orthogonalEdgeStyle;rounded=0;orthogonalLoop=1;jettySize=auto;html=1;exitX=1;exitY=0.5;exitDx=0;exitDy=0;entryX=1.002;entryY=0.662;entryDx=0;entryDy=0;entryPerimeter=0;fontSize=18;" parent="1" source="DKASBzYihUWhFQ_MFBSG-121" target="DKASBzYihUWhFQ_MFBSG-134" edge="1">
          <mxGeometry relative="1" as="geometry">
            <Array as="points">
              <mxPoint x="1220" y="245" />
              <mxPoint x="1220" y="499" />
            </Array>
          </mxGeometry>
        </mxCell>
        <mxCell id="DKASBzYihUWhFQ_MFBSG-121" value="go to epilogue" style="rounded=0;whiteSpace=wrap;html=1;fontSize=18;fillColor=#FFFFFF;" parent="1" vertex="1">
          <mxGeometry x="1030" y="230" width="150" height="30" as="geometry" />
        </mxCell>
        <mxCell id="DKASBzYihUWhFQ_MFBSG-122" value="label 1" style="text;html=1;align=center;verticalAlign=middle;resizable=0;points=[];autosize=1;strokeColor=none;fillColor=none;fontSize=18;" parent="1" vertex="1">
          <mxGeometry x="950" y="185" width="80" height="40" as="geometry" />
        </mxCell>
        <mxCell id="DKASBzYihUWhFQ_MFBSG-123" value="label 2" style="text;html=1;align=center;verticalAlign=middle;resizable=0;points=[];autosize=1;strokeColor=none;fillColor=none;fontSize=18;" parent="1" vertex="1">
          <mxGeometry x="950" y="225" width="80" height="40" as="geometry" />
        </mxCell>
        <mxCell id="DKASBzYihUWhFQ_MFBSG-136" style="edgeStyle=orthogonalEdgeStyle;rounded=0;orthogonalLoop=1;jettySize=auto;html=1;exitX=1;exitY=0.25;exitDx=0;exitDy=0;entryX=0.995;entryY=0.39;entryDx=0;entryDy=0;entryPerimeter=0;fontSize=18;" parent="1" source="DKASBzYihUWhFQ_MFBSG-125" target="DKASBzYihUWhFQ_MFBSG-134" edge="1">
          <mxGeometry relative="1" as="geometry" />
        </mxCell>
        <mxCell id="DKASBzYihUWhFQ_MFBSG-125" value="go to epilogue" style="rounded=0;whiteSpace=wrap;html=1;fontSize=18;fillColor=#FFFFFF;" parent="1" vertex="1">
          <mxGeometry x="1030" y="190" width="150" height="30" as="geometry" />
        </mxCell>
        <mxCell id="DKASBzYihUWhFQ_MFBSG-134" value="进行上下文切换&lt;br&gt;回到host态" style="rounded=0;whiteSpace=wrap;html=1;fontSize=18;fillColor=#FFFFFF;" parent="1" vertex="1">
          <mxGeometry x="1030" y="380" width="150" height="180" as="geometry" />
        </mxCell>
        <mxCell id="DKASBzYihUWhFQ_MFBSG-135" value="&lt;span style=&quot;&quot;&gt;epilogue&lt;/span&gt;" style="text;html=1;align=center;verticalAlign=middle;resizable=0;points=[];autosize=1;strokeColor=none;fillColor=none;fontSize=18;" parent="1" vertex="1">
          <mxGeometry x="1030" y="380" width="90" height="40" as="geometry" />
        </mxCell>
      </root>
    </mxGraphModel>
  </diagram>
  <diagram id="n2RygaDCTpoAUgwhjVF8" name="第 15 页">
    <mxGraphModel dx="1243" dy="543" grid="1" gridSize="10" guides="1" tooltips="1" connect="1" arrows="1" fold="1" page="1" pageScale="1" pageWidth="827" pageHeight="1169" math="0" shadow="0">
      <root>
        <mxCell id="0" />
        <mxCell id="1" parent="0" />
        <mxCell id="jfDIbeVcR05AGa6Scw8d-1" value="TB 1" style="rounded=0;whiteSpace=wrap;html=1;" vertex="1" parent="1">
          <mxGeometry x="240" y="200" width="120" height="60" as="geometry" />
        </mxCell>
        <mxCell id="jfDIbeVcR05AGa6Scw8d-2" value="TB 2" style="rounded=0;whiteSpace=wrap;html=1;" vertex="1" parent="1">
          <mxGeometry x="240" y="260" width="120" height="60" as="geometry" />
        </mxCell>
        <mxCell id="jfDIbeVcR05AGa6Scw8d-3" value="0x100" style="text;html=1;align=center;verticalAlign=middle;resizable=0;points=[];autosize=1;strokeColor=none;fillColor=none;" vertex="1" parent="1">
          <mxGeometry x="180" y="180" width="60" height="30" as="geometry" />
        </mxCell>
        <mxCell id="jfDIbeVcR05AGa6Scw8d-4" value="0x200" style="text;html=1;align=center;verticalAlign=middle;resizable=0;points=[];autosize=1;strokeColor=none;fillColor=none;" vertex="1" parent="1">
          <mxGeometry x="180" y="240" width="60" height="30" as="geometry" />
        </mxCell>
        <mxCell id="jfDIbeVcR05AGa6Scw8d-5" value="0x300" style="text;html=1;align=center;verticalAlign=middle;resizable=0;points=[];autosize=1;strokeColor=none;fillColor=none;" vertex="1" parent="1">
          <mxGeometry x="180" y="305" width="60" height="30" as="geometry" />
        </mxCell>
        <mxCell id="jfDIbeVcR05AGa6Scw8d-8" style="edgeStyle=orthogonalEdgeStyle;rounded=0;orthogonalLoop=1;jettySize=auto;html=1;entryX=0.993;entryY=0.622;entryDx=0;entryDy=0;entryPerimeter=0;" edge="1" parent="1" source="jfDIbeVcR05AGa6Scw8d-7" target="jfDIbeVcR05AGa6Scw8d-1">
          <mxGeometry relative="1" as="geometry">
            <Array as="points">
              <mxPoint x="380" y="350" />
              <mxPoint x="380" y="237" />
            </Array>
          </mxGeometry>
        </mxCell>
        <mxCell id="jfDIbeVcR05AGa6Scw8d-7" value="TB 3" style="rounded=0;whiteSpace=wrap;html=1;" vertex="1" parent="1">
          <mxGeometry x="240" y="320" width="120" height="60" as="geometry" />
        </mxCell>
      </root>
    </mxGraphModel>
  </diagram>
  <diagram id="97eERVIzChAfwkZ_Jivl" name="第 16 页">
    <mxGraphModel dx="858" dy="375" grid="1" gridSize="10" guides="1" tooltips="1" connect="1" arrows="1" fold="1" page="1" pageScale="1" pageWidth="827" pageHeight="1169" math="0" shadow="0">
      <root>
        <mxCell id="0" />
        <mxCell id="1" parent="0" />
        <mxCell id="NIHMv6azG7U14T6VyG-n-1" value="itemp0" style="rounded=0;whiteSpace=wrap;html=1;" vertex="1" parent="1">
          <mxGeometry x="80" y="320" width="80" height="40" as="geometry" />
        </mxCell>
        <mxCell id="NIHMv6azG7U14T6VyG-n-3" value="itemp1" style="rounded=0;whiteSpace=wrap;html=1;" vertex="1" parent="1">
          <mxGeometry x="160" y="320" width="80" height="40" as="geometry" />
        </mxCell>
        <mxCell id="NIHMv6azG7U14T6VyG-n-4" value="itemp2" style="rounded=0;whiteSpace=wrap;html=1;" vertex="1" parent="1">
          <mxGeometry x="240" y="320" width="80" height="40" as="geometry" />
        </mxCell>
        <mxCell id="NIHMv6azG7U14T6VyG-n-5" value="itemp3" style="rounded=0;whiteSpace=wrap;html=1;" vertex="1" parent="1">
          <mxGeometry x="320" y="320" width="80" height="40" as="geometry" />
        </mxCell>
        <mxCell id="NIHMv6azG7U14T6VyG-n-6" value="itemp4" style="rounded=0;whiteSpace=wrap;html=1;" vertex="1" parent="1">
          <mxGeometry x="400" y="320" width="80" height="40" as="geometry" />
        </mxCell>
        <mxCell id="NIHMv6azG7U14T6VyG-n-7" value="itemp5" style="rounded=0;whiteSpace=wrap;html=1;" vertex="1" parent="1">
          <mxGeometry x="480" y="320" width="80" height="40" as="geometry" />
        </mxCell>
        <mxCell id="NIHMv6azG7U14T6VyG-n-8" value="" style="shape=flexArrow;endArrow=classic;html=1;rounded=0;" edge="1" parent="1">
          <mxGeometry width="50" height="50" relative="1" as="geometry">
            <mxPoint x="80" y="290" as="sourcePoint" />
            <mxPoint x="280" y="290" as="targetPoint" />
          </mxGeometry>
        </mxCell>
        <mxCell id="NIHMv6azG7U14T6VyG-n-10" value="" style="shape=flexArrow;endArrow=classic;html=1;rounded=0;" edge="1" parent="1">
          <mxGeometry width="50" height="50" relative="1" as="geometry">
            <mxPoint x="560" y="290" as="sourcePoint" />
            <mxPoint x="360" y="290" as="targetPoint" />
          </mxGeometry>
        </mxCell>
        <mxCell id="NIHMv6azG7U14T6VyG-n-12" value="从小到大为普通指令分配临时寄存器" style="text;html=1;align=center;verticalAlign=middle;resizable=0;points=[];autosize=1;strokeColor=none;fillColor=none;" vertex="1" parent="1">
          <mxGeometry x="70" y="245" width="220" height="30" as="geometry" />
        </mxCell>
        <mxCell id="NIHMv6azG7U14T6VyG-n-13" value="从大到小分配需要保护的临时寄存器" style="text;html=1;align=center;verticalAlign=middle;resizable=0;points=[];autosize=1;strokeColor=none;fillColor=none;" vertex="1" parent="1">
          <mxGeometry x="350" y="245" width="220" height="30" as="geometry" />
        </mxCell>
      </root>
    </mxGraphModel>
  </diagram>
  <diagram id="tKbk8S7kVxaM4W9ySuk1" name="第 17 页">
    <mxGraphModel dx="1243" dy="543" grid="1" gridSize="10" guides="1" tooltips="1" connect="1" arrows="1" fold="1" page="1" pageScale="1" pageWidth="827" pageHeight="1169" math="0" shadow="0">
      <root>
        <mxCell id="0" />
        <mxCell id="1" parent="0" />
        <mxCell id="b6bnOcuul3fCgJSpvMNs-1" value="TB 2" style="rounded=0;whiteSpace=wrap;html=1;" vertex="1" parent="1">
          <mxGeometry x="280" y="320" width="120" height="60" as="geometry" />
        </mxCell>
        <mxCell id="b6bnOcuul3fCgJSpvMNs-2" value="TB 3" style="rounded=0;whiteSpace=wrap;html=1;" vertex="1" parent="1">
          <mxGeometry x="280" y="380" width="120" height="60" as="geometry" />
        </mxCell>
        <mxCell id="b6bnOcuul3fCgJSpvMNs-5" style="edgeStyle=orthogonalEdgeStyle;rounded=0;orthogonalLoop=1;jettySize=auto;html=1;entryX=1.002;entryY=0.387;entryDx=0;entryDy=0;entryPerimeter=0;" edge="1" parent="1" source="b6bnOcuul3fCgJSpvMNs-3" target="b6bnOcuul3fCgJSpvMNs-1">
          <mxGeometry relative="1" as="geometry">
            <Array as="points">
              <mxPoint x="420" y="470" />
              <mxPoint x="420" y="343" />
            </Array>
          </mxGeometry>
        </mxCell>
        <mxCell id="b6bnOcuul3fCgJSpvMNs-3" value="TB 4" style="rounded=0;whiteSpace=wrap;html=1;" vertex="1" parent="1">
          <mxGeometry x="280" y="440" width="120" height="60" as="geometry" />
        </mxCell>
        <mxCell id="b6bnOcuul3fCgJSpvMNs-4" value="TB 1" style="rounded=0;whiteSpace=wrap;html=1;" vertex="1" parent="1">
          <mxGeometry x="280" y="260" width="120" height="60" as="geometry" />
        </mxCell>
        <mxCell id="sdX23YUGBTQnrgt3WvGy-11" value="itemp0" style="rounded=0;whiteSpace=wrap;html=1;fillColor=#FFF2CC;" vertex="1" parent="1">
          <mxGeometry x="100" y="602" width="80" height="40" as="geometry" />
        </mxCell>
        <mxCell id="sdX23YUGBTQnrgt3WvGy-12" value="itemp1" style="rounded=0;whiteSpace=wrap;html=1;fillColor=#FFF2CC;" vertex="1" parent="1">
          <mxGeometry x="180" y="602" width="80" height="40" as="geometry" />
        </mxCell>
        <mxCell id="sdX23YUGBTQnrgt3WvGy-13" value="itemp2" style="rounded=0;whiteSpace=wrap;html=1;fillColor=#FFF2CC;" vertex="1" parent="1">
          <mxGeometry x="260" y="602" width="80" height="40" as="geometry" />
        </mxCell>
        <mxCell id="sdX23YUGBTQnrgt3WvGy-14" value="itemp3" style="rounded=0;whiteSpace=wrap;html=1;fillColor=#FFF2CC;" vertex="1" parent="1">
          <mxGeometry x="340" y="602" width="80" height="40" as="geometry" />
        </mxCell>
        <mxCell id="sdX23YUGBTQnrgt3WvGy-15" value="itemp4" style="rounded=0;whiteSpace=wrap;html=1;fillColor=#66FFFF;" vertex="1" parent="1">
          <mxGeometry x="420" y="602" width="80" height="40" as="geometry" />
        </mxCell>
        <mxCell id="sdX23YUGBTQnrgt3WvGy-16" value="itemp5" style="rounded=0;whiteSpace=wrap;html=1;fillColor=#CCFF99;" vertex="1" parent="1">
          <mxGeometry x="500" y="602" width="80" height="40" as="geometry" />
        </mxCell>
        <mxCell id="sdX23YUGBTQnrgt3WvGy-17" value="" style="shape=flexArrow;endArrow=classic;html=1;rounded=0;" edge="1" parent="1">
          <mxGeometry width="50" height="50" relative="1" as="geometry">
            <mxPoint x="100" y="572" as="sourcePoint" />
            <mxPoint x="300" y="572" as="targetPoint" />
          </mxGeometry>
        </mxCell>
        <mxCell id="sdX23YUGBTQnrgt3WvGy-18" value="" style="shape=flexArrow;endArrow=classic;html=1;rounded=0;" edge="1" parent="1">
          <mxGeometry width="50" height="50" relative="1" as="geometry">
            <mxPoint x="580" y="572" as="sourcePoint" />
            <mxPoint x="380" y="572" as="targetPoint" />
          </mxGeometry>
        </mxCell>
        <mxCell id="sdX23YUGBTQnrgt3WvGy-19" value="从小到大为普通指令分配临时寄存器" style="text;html=1;align=center;verticalAlign=middle;resizable=0;points=[];autosize=1;strokeColor=none;fillColor=none;" vertex="1" parent="1">
          <mxGeometry x="90" y="527" width="220" height="30" as="geometry" />
        </mxCell>
        <mxCell id="sdX23YUGBTQnrgt3WvGy-20" value="从大到小分配需要保护的临时寄存器" style="text;html=1;align=center;verticalAlign=middle;resizable=0;points=[];autosize=1;strokeColor=none;fillColor=none;" vertex="1" parent="1">
          <mxGeometry x="370" y="527" width="220" height="30" as="geometry" />
        </mxCell>
      </root>
    </mxGraphModel>
  </diagram>
  <diagram id="A6bE7XbtRvDBBKTDf61c" name="第 19 页">
    <mxGraphModel dx="1802" dy="787" grid="1" gridSize="10" guides="1" tooltips="1" connect="1" arrows="1" fold="1" page="1" pageScale="1" pageWidth="827" pageHeight="1169" math="0" shadow="0">
      <root>
        <mxCell id="0" />
        <mxCell id="1" parent="0" />
        <mxCell id="GXK14JV_QIHKN0AwXHMh-4" value="Guest态" style="rounded=0;whiteSpace=wrap;html=1;fontSize=18;fillColor=none;" vertex="1" parent="1">
          <mxGeometry x="220" y="220" width="120" height="60" as="geometry" />
        </mxCell>
        <mxCell id="GXK14JV_QIHKN0AwXHMh-5" value="Host态" style="rounded=0;whiteSpace=wrap;html=1;fontSize=18;fillColor=none;" vertex="1" parent="1">
          <mxGeometry x="480" y="220" width="120" height="60" as="geometry" />
        </mxCell>
        <mxCell id="GXK14JV_QIHKN0AwXHMh-6" value="" style="endArrow=classic;html=1;rounded=0;fontSize=18;exitX=1;exitY=0.25;exitDx=0;exitDy=0;entryX=0;entryY=0.25;entryDx=0;entryDy=0;" edge="1" parent="1" source="GXK14JV_QIHKN0AwXHMh-4" target="GXK14JV_QIHKN0AwXHMh-5">
          <mxGeometry width="50" height="50" relative="1" as="geometry">
            <mxPoint x="390" y="430" as="sourcePoint" />
            <mxPoint x="440" y="380" as="targetPoint" />
          </mxGeometry>
        </mxCell>
        <mxCell id="GXK14JV_QIHKN0AwXHMh-7" value="" style="endArrow=classic;html=1;rounded=0;fontSize=18;entryX=1;entryY=0.75;entryDx=0;entryDy=0;exitX=0;exitY=0.75;exitDx=0;exitDy=0;" edge="1" parent="1" source="GXK14JV_QIHKN0AwXHMh-5" target="GXK14JV_QIHKN0AwXHMh-4">
          <mxGeometry width="50" height="50" relative="1" as="geometry">
            <mxPoint x="390" y="430" as="sourcePoint" />
            <mxPoint x="440" y="380" as="targetPoint" />
          </mxGeometry>
        </mxCell>
        <mxCell id="GXK14JV_QIHKN0AwXHMh-8" value="上下文切换" style="text;html=1;align=center;verticalAlign=middle;resizable=0;points=[];autosize=1;strokeColor=none;fillColor=none;fontSize=18;" vertex="1" parent="1">
          <mxGeometry x="359" y="230" width="110" height="40" as="geometry" />
        </mxCell>
      </root>
    </mxGraphModel>
  </diagram>
  <diagram id="HR7efDnAqNIwkAuHfMIW" name="第 20 页">
    <mxGraphModel dx="1802" dy="787" grid="1" gridSize="10" guides="1" tooltips="1" connect="1" arrows="1" fold="1" page="1" pageScale="1" pageWidth="827" pageHeight="1169" math="0" shadow="0">
      <root>
        <mxCell id="0" />
        <mxCell id="1" parent="0" />
        <mxCell id="yW4dYIIx805TLkBgeIQ7-20" value="" style="edgeStyle=orthogonalEdgeStyle;rounded=0;orthogonalLoop=1;jettySize=auto;html=1;fontSize=18;" edge="1" parent="1" source="yW4dYIIx805TLkBgeIQ7-3" target="yW4dYIIx805TLkBgeIQ7-5">
          <mxGeometry relative="1" as="geometry" />
        </mxCell>
        <mxCell id="yW4dYIIx805TLkBgeIQ7-3" value="加载待翻译程序" style="rounded=0;whiteSpace=wrap;html=1;fontSize=18;fillColor=none;" vertex="1" parent="1">
          <mxGeometry x="240" y="80" width="160" height="40" as="geometry" />
        </mxCell>
        <mxCell id="yW4dYIIx805TLkBgeIQ7-19" value="" style="edgeStyle=orthogonalEdgeStyle;rounded=0;orthogonalLoop=1;jettySize=auto;html=1;fontSize=18;" edge="1" parent="1" source="yW4dYIIx805TLkBgeIQ7-5" target="yW4dYIIx805TLkBgeIQ7-8">
          <mxGeometry relative="1" as="geometry" />
        </mxCell>
        <mxCell id="yW4dYIIx805TLkBgeIQ7-5" value="初始化" style="rounded=0;whiteSpace=wrap;html=1;fontSize=18;fillColor=none;" vertex="1" parent="1">
          <mxGeometry x="240" y="160" width="160" height="40" as="geometry" />
        </mxCell>
        <mxCell id="yW4dYIIx805TLkBgeIQ7-18" value="" style="edgeStyle=orthogonalEdgeStyle;rounded=0;orthogonalLoop=1;jettySize=auto;html=1;fontSize=18;" edge="1" parent="1" source="yW4dYIIx805TLkBgeIQ7-8" target="yW4dYIIx805TLkBgeIQ7-9">
          <mxGeometry relative="1" as="geometry" />
        </mxCell>
        <mxCell id="yW4dYIIx805TLkBgeIQ7-8" value="找到要执行的代码" style="rounded=0;whiteSpace=wrap;html=1;fontSize=18;fillColor=none;" vertex="1" parent="1">
          <mxGeometry x="240" y="240" width="160" height="40" as="geometry" />
        </mxCell>
        <mxCell id="yW4dYIIx805TLkBgeIQ7-17" value="" style="edgeStyle=orthogonalEdgeStyle;rounded=0;orthogonalLoop=1;jettySize=auto;html=1;fontSize=18;" edge="1" parent="1" source="yW4dYIIx805TLkBgeIQ7-9" target="yW4dYIIx805TLkBgeIQ7-11">
          <mxGeometry relative="1" as="geometry" />
        </mxCell>
        <mxCell id="yW4dYIIx805TLkBgeIQ7-29" value="" style="edgeStyle=orthogonalEdgeStyle;rounded=0;orthogonalLoop=1;jettySize=auto;html=1;fontSize=18;" edge="1" parent="1" source="yW4dYIIx805TLkBgeIQ7-9" target="yW4dYIIx805TLkBgeIQ7-28">
          <mxGeometry relative="1" as="geometry" />
        </mxCell>
        <mxCell id="yW4dYIIx805TLkBgeIQ7-9" value="是否翻译过?" style="rhombus;whiteSpace=wrap;html=1;fontSize=18;fillColor=none;" vertex="1" parent="1">
          <mxGeometry x="205" y="320" width="230" height="80" as="geometry" />
        </mxCell>
        <mxCell id="yW4dYIIx805TLkBgeIQ7-16" value="" style="edgeStyle=orthogonalEdgeStyle;rounded=0;orthogonalLoop=1;jettySize=auto;html=1;fontSize=18;" edge="1" parent="1" source="yW4dYIIx805TLkBgeIQ7-11" target="yW4dYIIx805TLkBgeIQ7-14">
          <mxGeometry relative="1" as="geometry" />
        </mxCell>
        <mxCell id="yW4dYIIx805TLkBgeIQ7-11" value="执行翻译后的代码" style="rounded=0;whiteSpace=wrap;html=1;fontSize=18;fillColor=none;" vertex="1" parent="1">
          <mxGeometry x="240" y="440" width="160" height="40" as="geometry" />
        </mxCell>
        <mxCell id="yW4dYIIx805TLkBgeIQ7-34" style="edgeStyle=orthogonalEdgeStyle;rounded=0;orthogonalLoop=1;jettySize=auto;html=1;exitX=0.5;exitY=1;exitDx=0;exitDy=0;fontSize=18;" edge="1" parent="1" source="yW4dYIIx805TLkBgeIQ7-12">
          <mxGeometry relative="1" as="geometry">
            <mxPoint x="660" y="560" as="targetPoint" />
          </mxGeometry>
        </mxCell>
        <mxCell id="yW4dYIIx805TLkBgeIQ7-12" value="基本块链接" style="rounded=0;whiteSpace=wrap;html=1;fontSize=18;fillColor=none;" vertex="1" parent="1">
          <mxGeometry x="240" y="640" width="160" height="40" as="geometry" />
        </mxCell>
        <mxCell id="yW4dYIIx805TLkBgeIQ7-15" value="" style="edgeStyle=orthogonalEdgeStyle;rounded=0;orthogonalLoop=1;jettySize=auto;html=1;fontSize=18;" edge="1" parent="1" source="yW4dYIIx805TLkBgeIQ7-14" target="yW4dYIIx805TLkBgeIQ7-12">
          <mxGeometry relative="1" as="geometry" />
        </mxCell>
        <mxCell id="yW4dYIIx805TLkBgeIQ7-24" value="" style="edgeStyle=orthogonalEdgeStyle;rounded=0;orthogonalLoop=1;jettySize=auto;html=1;fontSize=18;" edge="1" parent="1" source="yW4dYIIx805TLkBgeIQ7-14" target="yW4dYIIx805TLkBgeIQ7-23">
          <mxGeometry relative="1" as="geometry" />
        </mxCell>
        <mxCell id="yW4dYIIx805TLkBgeIQ7-14" value="是否正常退出" style="rhombus;whiteSpace=wrap;html=1;fontSize=18;fillColor=none;" vertex="1" parent="1">
          <mxGeometry x="205" y="520" width="230" height="80" as="geometry" />
        </mxCell>
        <mxCell id="yW4dYIIx805TLkBgeIQ7-33" style="edgeStyle=orthogonalEdgeStyle;rounded=0;orthogonalLoop=1;jettySize=auto;html=1;exitX=1;exitY=0.5;exitDx=0;exitDy=0;entryX=1;entryY=0.5;entryDx=0;entryDy=0;fontSize=18;" edge="1" parent="1" source="yW4dYIIx805TLkBgeIQ7-23" target="yW4dYIIx805TLkBgeIQ7-8">
          <mxGeometry relative="1" as="geometry" />
        </mxCell>
        <mxCell id="yW4dYIIx805TLkBgeIQ7-23" value="异常情况处理" style="rounded=0;whiteSpace=wrap;html=1;fontSize=18;fillColor=none;" vertex="1" parent="1">
          <mxGeometry x="480" y="540" width="160" height="40" as="geometry" />
        </mxCell>
        <mxCell id="yW4dYIIx805TLkBgeIQ7-25" value="否" style="text;html=1;align=center;verticalAlign=middle;resizable=0;points=[];autosize=1;strokeColor=none;fillColor=none;fontSize=18;" vertex="1" parent="1">
          <mxGeometry x="435" y="520" width="40" height="40" as="geometry" />
        </mxCell>
        <mxCell id="yW4dYIIx805TLkBgeIQ7-26" value="是" style="text;html=1;align=center;verticalAlign=middle;resizable=0;points=[];autosize=1;strokeColor=none;fillColor=none;fontSize=18;" vertex="1" parent="1">
          <mxGeometry x="280" y="600" width="40" height="40" as="geometry" />
        </mxCell>
        <mxCell id="yW4dYIIx805TLkBgeIQ7-27" value="是" style="text;html=1;align=center;verticalAlign=middle;resizable=0;points=[];autosize=1;strokeColor=none;fillColor=none;fontSize=18;" vertex="1" parent="1">
          <mxGeometry x="280" y="400" width="40" height="40" as="geometry" />
        </mxCell>
        <mxCell id="yW4dYIIx805TLkBgeIQ7-32" style="edgeStyle=orthogonalEdgeStyle;rounded=0;orthogonalLoop=1;jettySize=auto;html=1;exitX=0.5;exitY=1;exitDx=0;exitDy=0;entryX=1;entryY=0.5;entryDx=0;entryDy=0;fontSize=18;" edge="1" parent="1" source="yW4dYIIx805TLkBgeIQ7-28" target="yW4dYIIx805TLkBgeIQ7-11">
          <mxGeometry relative="1" as="geometry" />
        </mxCell>
        <mxCell id="yW4dYIIx805TLkBgeIQ7-28" value="翻译代码" style="rounded=0;whiteSpace=wrap;html=1;fontSize=18;fillColor=none;" vertex="1" parent="1">
          <mxGeometry x="480" y="340" width="160" height="40" as="geometry" />
        </mxCell>
        <mxCell id="yW4dYIIx805TLkBgeIQ7-30" value="否" style="text;html=1;align=center;verticalAlign=middle;resizable=0;points=[];autosize=1;strokeColor=none;fillColor=none;fontSize=18;" vertex="1" parent="1">
          <mxGeometry x="435" y="320" width="40" height="40" as="geometry" />
        </mxCell>
      </root>
    </mxGraphModel>
  </diagram>
</mxfile>
